<svg height="384pt" viewBox="0 0 384 384" width="384pt" xmlns="http://www.w3.org/2000/svg"><path d="m192 368c83.441406 0 153.265625-58.078125 171.375-136-18.109375-77.921875-87.933594-136-171.375-136s-153.265625 58.078125-171.375 136c18.109375 77.921875 87.933594 136 171.375 136zm0 0" fill="#cce4ff"/><g fill="#007aff"><path d="m112 240h160v32h-160zm0 0"/><path d="m192 0c-105.871094 0-192 86.128906-192 192s86.128906 192 192 192 192-86.128906 192-192-86.128906-192-192-192zm0 352c-88.222656 0-160-71.777344-160-160s71.777344-160 160-160 160 71.777344 160 160-71.777344 160-160 160zm0 0"/><path d="m112 144h32v32h-32zm0 0"/><path d="m240 144h32v32h-32zm0 0"/></g></svg>