<svg xmlns="http://www.w3.org/2000/svg" id="good" width="48.13" height="48.13" viewBox="0 0 48.13 48.13">
    <defs>
        <style>
            .cls-1{fill:#ffd21f}.cls-2{fill:#403408}
        </style>
    </defs>
    <g id="Group_838" data-name="Group 838">
        <circle id="Ellipse_174" cx="24.065" cy="24.065" r="24.065" class="cls-1" data-name="Ellipse 174"/>
    </g>
    <g id="Group_839" data-name="Group 839" transform="translate(8.525 17.627)">
        <path id="Path_1087" d="M134.2 571.237a1.224 1.224 0 0 1-1.223-1.209 5.652 5.652 0 0 1 1.42-3.76 4.537 4.537 0 0 1 6.168 0 5.57 5.57 0 0 1 1.385 3.736 1.224 1.224 0 0 1-2.447-.048 3.149 3.149 0 0 0-.693-1.982 2.116 2.116 0 0 0-2.673.01 3.317 3.317 0 0 0-.713 2.01 1.223 1.223 0 0 1-1.209 1.238z" class="cls-2" data-name="Path 1087" transform="translate(-132.977 -565.061)"/>
        <path id="Path_1088" d="M163.3 571.237a1.224 1.224 0 0 1-1.224-1.209 5.66 5.66 0 0 1 1.42-3.76 4.537 4.537 0 0 1 6.168 0 5.577 5.577 0 0 1 1.386 3.736 1.224 1.224 0 0 1-2.447-.048 3.155 3.155 0 0 0-.694-1.982 2.115 2.115 0 0 0-2.672.01 3.311 3.311 0 0 0-.713 2.01 1.224 1.224 0 0 1-1.209 1.238z" class="cls-2" data-name="Path 1088" transform="translate(-140.133 -565.061)"/>
    </g>
    <path id="Path_1089" d="M151.056 588.641c-5.284 0-7.119-5.322-7.194-5.549a1.224 1.224 0 0 1 2.322-.774c.053.155 1.367 3.876 4.873 3.876s4.874-3.766 4.931-3.925a1.224 1.224 0 0 1 2.314.8c-.08.223-1.971 5.572-7.246 5.572z" class="cls-2" data-name="Path 1089" transform="translate(-127.113 -551.464)"/>
</svg>
