<svg xmlns="http://www.w3.org/2000/svg" id="poor" width="48.13" height="48.13" viewBox="0 0 48.13 48.13">
    <defs>
        <style>
            .cls-1{fill:#ffd21f}.cls-2{fill:#403408}
        </style>
    </defs>
    <g id="Group_764" data-name="Group 764">
        <path id="Path_1003" d="M758.56 129.636a24.065 24.065 0 1 1-24.066-24.065 24.065 24.065 0 0 1 24.066 24.065z" class="cls-1" data-name="Path 1003" transform="translate(-710.43 -105.571)"/>
    </g>
    <g id="Group_765" data-name="Group 765" transform="translate(11.31 17.406)">
        <path id="Path_1004" d="M727.246 136.279a1.753 1.753 0 0 1-1.748-1.748v-4.2a1.753 1.753 0 0 1 1.748-1.748 1.753 1.753 0 0 1 1.749 1.748v4.2a1.753 1.753 0 0 1-1.749 1.748z" class="cls-2" data-name="Path 1004" transform="translate(-725.498 -128.587)"/>
        <path id="Path_1005" d="M756.3 136.279a1.753 1.753 0 0 1-1.748-1.748v-4.2a1.753 1.753 0 0 1 1.748-1.748 1.754 1.754 0 0 1 1.749 1.748v4.2a1.754 1.754 0 0 1-1.749 1.748z" class="cls-2" data-name="Path 1005" transform="translate(-732.645 -128.587)"/>
    </g>
    <g id="Group_769" data-name="Group 769" transform="translate(14.327 27.655)">
        <g id="Group_768" data-name="Group 768">
            <path id="Path_1008" d="M747.82 151.6a.561.561 0 0 0 .951-.517v-.015c-.753-2.508-3.267-8.821-9.5-8.821s-8.8 6.358-9.581 8.888v.014a.56.56 0 0 0 .952.517 12.524 12.524 0 0 1 17.191-.066z" class="cls-2" data-name="Path 1008" transform="translate(-729.655 -142.247)"/>
        </g>
    </g>
    <g id="Group_932" data-name="Group 932" transform="translate(6.032 8.358)">
        <path id="Path_1178" d="M5.415 2.666C1.356 2.666.2 1.045.087.86a.552.552 0 1 1 .93-.593s.947 1.3 4.4 1.3c3.48 0 4.438-1.3 4.447-1.315a.552.552 0 1 1 .92.608c-.124.181-1.315 1.806-5.369 1.806z" class="cls-2" data-name="Path 1178" transform="rotate(-161.99 18.08 .158)"/>
        <path id="Path_1179" d="M5.415 0C1.356 0 .2 1.621.087 1.805a.552.552 0 1 0 .93.593s.947-1.3 4.4-1.3c3.48 0 4.438 1.3 4.447 1.315a.552.552 0 1 0 .92-.608C10.66 1.625 9.469 0 5.415 0z" class="cls-2" data-name="Path 1179" transform="rotate(-18.01 10.607 1.682)"/>
    </g>
</svg>
