<svg xmlns="http://www.w3.org/2000/svg" id="very_good" width="48.13" height="48.13" data-name="very good" viewBox="0 0 48.13 48.13">
    <defs>
        <style>
            .cls-1{fill:#ffd21f}.cls-2{fill:#403408}.cls-3{fill:#fff}.cls-4{fill:none}
        </style>
    </defs>
    <g id="Group_716" data-name="Group 716">
        <circle id="Ellipse_155" cx="24.065" cy="24.065" r="24.065" class="cls-1" data-name="Ellipse 155"/>
    </g>
    <g id="Group_717" data-name="Group 717" transform="translate(8.608 16.446)">
        <path id="Path_940" d="M38.38 44.643a1.224 1.224 0 0 1-1.223-1.209 5.652 5.652 0 0 1 1.42-3.76 4.536 4.536 0 0 1 6.168.005 5.568 5.568 0 0 1 1.385 3.735 1.224 1.224 0 1 1-2.447-.048 3.148 3.148 0 0 0-.693-1.981 2.115 2.115 0 0 0-2.673.009A3.32 3.32 0 0 0 39.6 43.4a1.224 1.224 0 0 1-1.2 1.243z" class="cls-2" data-name="Path 940" transform="translate(-37.157 -38.466)"/>
        <path id="Path_941" d="M67.476 44.643a1.224 1.224 0 0 1-1.224-1.209 5.661 5.661 0 0 1 1.42-3.76 4.536 4.536 0 0 1 6.168.005 5.574 5.574 0 0 1 1.386 3.735 1.224 1.224 0 1 1-2.447-.048 3.155 3.155 0 0 0-.694-1.981 2.114 2.114 0 0 0-2.672.009A3.32 3.32 0 0 0 68.7 43.4a1.225 1.225 0 0 1-1.209 1.238z" class="cls-2" data-name="Path 941" transform="translate(-44.313 -38.466)"/>
    </g>
    <path id="Path_942" d="M41.047 51.652a.737.737 0 0 0-.684 1.013 13.67 13.67 0 0 0 12.971 8.821A13.892 13.892 0 0 0 66.411 52.6a.737.737 0 0 0-.685-1.017z" class="cls-2" data-name="Path 942" transform="translate(-29.323 -25.246)"/>
    <path id="Path_943" d="M42.527 51.291c-.475 0-.8.143-.622.272.936.674 4.061 2.373 11.815 2.373s10.946-1.71 11.911-2.391c.185-.13-.146-.274-.624-.274z" class="cls-3" data-name="Path 943" transform="translate(-29.704 -25.17)"/>
    <path id="Path_944" d="M41.047 51.652a.737.737 0 0 0-.684 1.013 13.67 13.67 0 0 0 12.971 8.821A13.892 13.892 0 0 0 66.411 52.6a.737.737 0 0 0-.685-1.017z" class="cls-4" data-name="Path 944" transform="translate(-29.323 -25.246)"/>
</svg>
