<svg xmlns="http://www.w3.org/2000/svg" id="very_poor" width="48.13" height="48.13" data-name="very poor" viewBox="0 0 48.13 48.13">
    <defs>
        <style>
            .cls-1{fill:#ffd21f}.cls-2{fill:#403408}.cls-3{fill:none}.cls-4{fill:#fff}
        </style>
    </defs>
    <g id="Group_716" data-name="Group 716">
        <circle id="Ellipse_155" cx="24.065" cy="24.065" r="24.065" class="cls-1" data-name="Ellipse 155"/>
    </g>
    <path id="Path_942" d="M.739.071a.737.737 0 0 0-.684 1.013 13.67 13.67 0 0 0 12.971 8.821A13.892 13.892 0 0 0 26.1 1.017.737.737 0 0 0 25.418 0z" class="cls-2" data-name="Path 942" transform="rotate(180 18.573 18.12)"/>
    <path id="Path_944" d="M.739.071a.737.737 0 0 0-.684 1.013 13.67 13.67 0 0 0 12.971 8.821A13.892 13.892 0 0 0 26.1 1.017.737.737 0 0 0 25.418 0z" class="cls-3" data-name="Path 944" transform="rotate(180 18.573 18.12)"/>
    <g id="Group_935" data-name="Group 935" transform="translate(9.802 17.342)">
        <g id="Group_766" data-name="Group 766">
            <path id="Path_1006" d="M727.585 125.561a10.139 10.139 0 0 1-3.517-.656 1.217 1.217 0 0 1 .924-2.252 6.647 6.647 0 0 0 4.429.134 3.976 3.976 0 0 0 2.121-2.359 1.217 1.217 0 1 1 2.262.9 6.367 6.367 0 0 1-3.443 3.7 7.1 7.1 0 0 1-2.776.533z" class="cls-2" data-name="Path 1006" transform="translate(-723.315 -119.661)"/>
        </g>
        <g id="Group_934" data-name="Group 934" transform="translate(17.343)">
            <path id="Path_1006-2" d="M729.621 125.561a10.138 10.138 0 0 0 3.517-.656 1.217 1.217 0 0 0-.924-2.252 6.647 6.647 0 0 1-4.429.134 3.976 3.976 0 0 1-2.121-2.359 1.217 1.217 0 1 0-2.262.9 6.367 6.367 0 0 0 3.443 3.7 7.1 7.1 0 0 0 2.776.533z" class="cls-2" data-name="Path 1006" transform="translate(-723.315 -119.661)"/>
        </g>
    </g>
    <path id="Path_1177" d="M.43.021c-.3 0-.514.157-.4.3.6.745 2.6 2.62 7.557 2.62s7-1.889 7.619-2.64c.118-.144-.093-.3-.4-.3z" class="cls-4" data-name="Path 1177" transform="rotate(180 15.842 15.016)"/>
    <g id="Group_933" data-name="Group 933" transform="translate(9.802 8.294)">
        <path id="Path_1180" d="M5.415 2.666C1.356 2.666.2 1.045.087.86a.552.552 0 1 1 .93-.593s.947 1.3 4.4 1.3c3.48 0 4.438-1.3 4.447-1.315a.552.552 0 1 1 .92.608c-.124.181-1.315 1.806-5.369 1.806z" class="cls-2" data-name="Path 1180" transform="rotate(-30 10.146 2.718)"/>
        <path id="Path_1181" d="M5.415 0C1.356 0 .2 1.62.087 1.805a.552.552 0 1 0 .93.593s.947-1.3 4.4-1.3c3.48 0 4.438 1.3 4.447 1.315a.552.552 0 1 0 .92-.608C10.66 1.625 9.469 0 5.415 0z" class="cls-2" data-name="Path 1181" transform="rotate(-150 14.417 .287)"/>
    </g>
</svg>
