<svg xmlns="http://www.w3.org/2000/svg" width="574.723" height="287.411" viewBox="0 0 574.723 287.411">
    <defs>
        <style>
            .cls-1{fill:#fc0}
        </style>
    </defs>
    <path id="Bg_L_bottomright" d="M154.338 287.411c-5.7 0-12.763-1.773-20.433-5.128a113.819 113.819 0 0 1-23.9-14.526 119.313 119.313 0 0 1-15.28-14.169 80.4 80.4 0 0 1-10.409-14.218 35.889 35.889 0 0 1-4.631-12.642c-.494-3.886.2-7.063 2.058-9.443a10.6 10.6 0 0 1 4.705-3.348 19.191 19.191 0 0 1 6.774-1.09 40.484 40.484 0 0 1 10.332 1.528 79.794 79.794 0 0 1 16.417 6.654 123.474 123.474 0 0 1 32.862 25.641 80.4 80.4 0 0 1 10.41 14.218 35.889 35.889 0 0 1 4.631 12.642c.494 3.886-.2 7.063-2.058 9.443a10.6 10.6 0 0 1-4.7 3.349 19.187 19.187 0 0 1-6.778 1.089zM32.167 254.675a45.911 45.911 0 0 1-14.779-2.9A93.428 93.428 0 0 1 0 243.426V189.49a121.222 121.222 0 0 1 15.38 10.275 119.3 119.3 0 0 1 15.28 14.169 80.406 80.406 0 0 1 10.411 14.218 35.891 35.891 0 0 1 4.629 12.641c.494 3.886-.2 7.063-2.058 9.443a10.6 10.6 0 0 1-4.7 3.349 19.187 19.187 0 0 1-6.775 1.09zM218.553 241.8a90.755 90.755 0 0 1-14.238-1.058 54.416 54.416 0 0 1-11.531-3.036c-6.852-2.739-10.856-6.607-11.581-11.186-.473-2.983.462-6.1 2.778-9.256a35.889 35.889 0 0 1 10.18-8.812 80.4 80.4 0 0 1 16-7.388 119.324 119.324 0 0 1 20.234-4.985 120.9 120.9 0 0 1 18.837-1.53 81.508 81.508 0 0 1 20.625 2.4c9.89 2.65 15.831 7.223 16.726 12.877.472 2.983-.463 6.1-2.779 9.257a35.889 35.889 0 0 1-10.18 8.812 80.4 80.4 0 0 1-16 7.388 119.323 119.323 0 0 1-20.234 4.985 120.935 120.935 0 0 1-18.837 1.532zm136.987-53.691c-5.7 0-12.763-1.773-20.433-5.128a113.829 113.829 0 0 1-23.9-14.526 119.3 119.3 0 0 1-15.281-14.169 80.4 80.4 0 0 1-10.41-14.218 35.889 35.889 0 0 1-4.631-12.642c-.494-3.886.2-7.063 2.058-9.443a10.594 10.594 0 0 1 4.7-3.348 19.193 19.193 0 0 1 6.774-1.09 40.494 40.494 0 0 1 10.332 1.528 79.783 79.783 0 0 1 16.418 6.654 123.5 123.5 0 0 1 32.863 25.641 80.4 80.4 0 0 1 10.411 14.217 35.89 35.89 0 0 1 4.631 12.642c.494 3.886-.2 7.063-2.058 9.442a10.6 10.6 0 0 1-4.7 3.349 19.186 19.186 0 0 1-6.774 1.091zm151.035-20.57a90.766 90.766 0 0 1-14.238-1.058 54.421 54.421 0 0 1-11.532-3.036c-6.852-2.739-10.857-6.607-11.582-11.186-.472-2.983.463-6.1 2.779-9.256a35.891 35.891 0 0 1 10.18-8.812 80.408 80.408 0 0 1 16-7.388 119.319 119.319 0 0 1 20.234-4.985 120.9 120.9 0 0 1 18.837-1.53 81.506 81.506 0 0 1 20.625 2.4c9.891 2.651 15.832 7.224 16.727 12.878.472 2.983-.463 6.1-2.779 9.256a35.894 35.894 0 0 1-10.18 8.812 80.407 80.407 0 0 1-16 7.388 119.315 119.315 0 0 1-20.234 4.985 120.933 120.933 0 0 1-18.837 1.531zM0 158.474V83.06c15.531 8.22 27.961 17.5 35.948 26.827a44 44 0 0 1 8.4 13.8 21.2 21.2 0 0 1 .674 12.981 20.117 20.117 0 0 1-5.194 8.622 33.672 33.672 0 0 1-9.647 6.555 63.832 63.832 0 0 1-13.481 4.416A109.241 109.241 0 0 1 0 158.474zm182.679-46.4c-18.54 0-39.407-3.173-60.346-9.177A241.265 241.265 0 0 1 83.524 88.18a162.073 162.073 0 0 1-29.876-18.35 93.19 93.19 0 0 1-10.683-9.819 55.335 55.335 0 0 1-7.365-9.866 30.823 30.823 0 0 1-3.681-9.625 19.819 19.819 0 0 1 .363-9.1 20.545 20.545 0 0 1 6.118-9.505A37.74 37.74 0 0 1 50 15a75.794 75.794 0 0 1 16.215-4.219 130.7 130.7 0 0 1 19.97-1.428c17.173 0 36.518 2.751 55.944 7.956 1.46.392 2.94.8 4.4 1.22a241.267 241.267 0 0 1 38.809 14.716A162.083 162.083 0 0 1 215.21 51.6a93.217 93.217 0 0 1 10.683 9.819 55.345 55.345 0 0 1 7.363 9.866 30.825 30.825 0 0 1 3.681 9.625 19.818 19.818 0 0 1-.363 9.1 20.543 20.543 0 0 1-6.117 9.508 37.74 37.74 0 0 1-11.6 6.912 75.8 75.8 0 0 1-16.214 4.219 130.708 130.708 0 0 1-19.963 1.423zm209.628-99.86c-8.95 0-17.055-1.122-23.439-3.244-6.468-2.151-10.919-5.253-12.88-8.97h88.483a87.937 87.937 0 0 1-15.029 6.346 120.986 120.986 0 0 1-18.3 4.336 120.941 120.941 0 0 1-18.835 1.53z" class="cls-1" data-name="Bg L bottomright" transform="rotate(180 287.361 143.706)"/>
</svg>
