<svg xmlns="http://www.w3.org/2000/svg" width="574.721" height="287.412" viewBox="0 0 574.721 287.412">
    <defs>
        <style>
            .cls-1{fill:#fff}
        </style>
    </defs>
    <path id="Bg_L_bottomleft" d="M852.807 634h-88.478a15.57 15.57 0 0 1 5.8-5.759 37.25 37.25 0 0 1 9.9-4.05 81.482 81.482 0 0 1 20.623-2.4 124.416 124.416 0 0 1 37.135 5.866 87.921 87.921 0 0 1 15.02 6.343zm-358.287-9.356a130.708 130.708 0 0 1-19.971-1.428A75.794 75.794 0 0 1 458.335 619a37.737 37.737 0 0 1-11.6-6.913 20.548 20.548 0 0 1-6.117-9.509 19.818 19.818 0 0 1-.362-9.1 30.823 30.823 0 0 1 3.682-9.625 55.343 55.343 0 0 1 7.363-9.866 93.2 93.2 0 0 1 10.683-9.819 162.082 162.082 0 0 1 29.876-18.35 241.263 241.263 0 0 1 38.813-14.718c1.477-.423 2.957-.833 4.4-1.219 19.426-5.205 38.772-7.957 55.945-7.957a130.715 130.715 0 0 1 19.97 1.428 75.786 75.786 0 0 1 16.214 4.219 37.734 37.734 0 0 1 11.6 6.912 20.546 20.546 0 0 1 6.113 9.517 19.818 19.818 0 0 1 .362 9.1 30.824 30.824 0 0 1-3.682 9.625 55.334 55.334 0 0 1-7.363 9.866 93.209 93.209 0 0 1-10.683 9.82 162.075 162.075 0 0 1-29.876 18.35 241.253 241.253 0 0 1-38.809 14.716c-20.936 5.994-41.802 9.167-60.344 9.167zm-86.181-73.7v-75.418a109.216 109.216 0 0 1 16.7 2.213 63.8 63.8 0 0 1 13.482 4.419 33.657 33.657 0 0 1 9.645 6.556 20.121 20.121 0 0 1 5.193 8.623 21.194 21.194 0 0 1-.673 12.981 44 44 0 0 1-8.4 13.8c-7.987 9.33-20.418 18.607-35.947 26.826zm294.42-30.484a19.184 19.184 0 0 1-6.773-1.09 10.6 10.6 0 0 1-4.7-3.348c-1.859-2.38-2.552-5.557-2.058-9.443a35.89 35.89 0 0 1 4.631-12.642 80.394 80.394 0 0 1 10.411-14.218 123.487 123.487 0 0 1 32.862-25.64 79.836 79.836 0 0 1 16.418-6.655 40.487 40.487 0 0 1 10.332-1.528 19.189 19.189 0 0 1 6.774 1.091 10.6 10.6 0 0 1 4.7 3.349c1.859 2.38 2.552 5.557 2.058 9.442a35.893 35.893 0 0 1-4.631 12.642 80.408 80.408 0 0 1-10.41 14.217 119.306 119.306 0 0 1-15.28 14.169 113.839 113.839 0 0 1-23.9 14.525c-7.669 3.351-14.735 5.124-20.433 5.125zm242.83-6.744a120.878 120.878 0 0 1-18.837-1.53 119.319 119.319 0 0 1-20.234-4.985 80.4 80.4 0 0 1-16-7.388A35.889 35.889 0 0 1 880.342 491c-2.316-3.159-3.251-6.273-2.779-9.256.9-5.654 6.836-10.227 16.727-12.877a81.481 81.481 0 0 1 20.623-2.4 120.926 120.926 0 0 1 18.84 1.53 119.327 119.327 0 0 1 20.234 4.985 80.4 80.4 0 0 1 16 7.387 35.887 35.887 0 0 1 10.179 8.812c2.316 3.159 3.251 6.273 2.778 9.256-.725 4.578-4.73 8.446-11.583 11.186a54.425 54.425 0 0 1-11.532 3.037 90.756 90.756 0 0 1-14.239 1.052zm-537.25-69.2v-53.942a87.236 87.236 0 0 1 21.834-9.721 40.478 40.478 0 0 1 10.333-1.529 19.187 19.187 0 0 1 6.774 1.09 10.6 10.6 0 0 1 4.7 3.349c1.859 2.38 2.551 5.557 2.057 9.443a35.892 35.892 0 0 1-4.631 12.642A80.4 80.4 0 0 1 439 420.066a119.3 119.3 0 0 1-15.281 14.169 121.237 121.237 0 0 1-15.379 10.273zm249.228-5.054a120.915 120.915 0 0 1-18.836-1.529 119.318 119.318 0 0 1-20.231-4.993 80.4 80.4 0 0 1-16-7.388 35.888 35.888 0 0 1-10.179-8.812c-2.316-3.159-3.251-6.273-2.778-9.256.9-5.654 6.836-10.227 16.727-12.877a81.443 81.443 0 0 1 20.621-2.4 120.892 120.892 0 0 1 18.84 1.531 119.325 119.325 0 0 1 20.234 4.985 80.4 80.4 0 0 1 16 7.388 35.888 35.888 0 0 1 10.18 8.812c2.316 3.159 3.251 6.274 2.779 9.257-.725 4.579-4.73 8.447-11.583 11.186a54.425 54.425 0 0 1-11.532 3.036 90.751 90.751 0 0 1-14.241 1.053zm-156.007-18.3a19.181 19.181 0 0 1-6.774-1.09 10.6 10.6 0 0 1-4.7-3.349c-1.859-2.38-2.552-5.557-2.058-9.443a35.89 35.89 0 0 1 4.631-12.642 80.4 80.4 0 0 1 10.411-14.217 123.488 123.488 0 0 1 32.862-25.641 79.835 79.835 0 0 1 16.418-6.655 40.472 40.472 0 0 1 10.332-1.528 19.188 19.188 0 0 1 6.774 1.091 10.6 10.6 0 0 1 4.705 3.349c1.859 2.38 2.552 5.557 2.058 9.443a35.892 35.892 0 0 1-4.631 12.642 80.4 80.4 0 0 1-10.411 14.218 119.3 119.3 0 0 1-15.285 14.16 113.807 113.807 0 0 1-23.9 14.524c-7.667 3.355-14.733 5.129-20.431 5.13z" class="cls-1" data-name="Bg L bottomleft" transform="translate(-408.34 -346.588)"/>
</svg>
