<svg xmlns="http://www.w3.org/2000/svg" width="886.259" height="260.272" viewBox="0 0 886.259 260.272">
    <defs>
        <style>
            .cls-1{fill:#fc0}
        </style>
    </defs>
    <path id="Bg_L_bottomright" d="M1185.869 262.8h-91.838c.191-3.891 1.723-8.185 4.551-12.766a68.612 68.612 0 0 1 11.706-13.78 125.124 125.124 0 0 1 17.688-13.547 169.255 169.255 0 0 1 22.5-12.067 165.485 165.485 0 0 1 28.481-9.79 108.107 108.107 0 0 1 24.991-3.277c14.279 0 23.932 4.016 27.179 11.309 1.556 3.495 1.585 7.571.086 12.117-1.448 4.391-4.275 9.091-8.4 13.969-8.337 9.855-21.455 19.74-36.938 27.833zm-108.923 0H786.622c2.785-6.934 8.436-13.517 16.8-19.567 8.168-5.911 18.68-11.144 31.242-15.553a237.5 237.5 0 0 1 42.444-10.266 334.04 334.04 0 0 1 50.4-3.705c2.105 0 4.247.019 6.366.056a343.165 343.165 0 0 1 49.543 4.379 256.424 256.424 0 0 1 42.3 10.473c12.628 4.387 23.443 9.537 32.146 15.306 8.853 5.869 15.273 12.22 19.081 18.876zm-572.024 0H433.83a13.446 13.446 0 0 1-.973-1.8c-1.713-3.847-1.578-8.38.4-13.471 1.912-4.918 5.455-10.147 10.531-15.544a112.132 112.132 0 0 1 18.883-15.726 171.972 171.972 0 0 1 53.936-23.808 108.115 108.115 0 0 1 24.991-3.277c14.28 0 23.933 4.016 27.18 11.309 1.713 3.848 1.578 8.38-.4 13.471-1.912 4.918-5.455 10.147-10.532 15.544a112.118 112.118 0 0 1-18.883 15.726 166.4 166.4 0 0 1-25.457 14.018 177.728 177.728 0 0 1-8.585 3.558zm559.86-37.287c-14.28 0-23.933-4.016-27.18-11.31-1.713-3.847-1.578-8.38.4-13.471 1.912-4.918 5.455-10.147 10.532-15.544a112.114 112.114 0 0 1 18.883-15.726 171.993 171.993 0 0 1 53.937-23.807 108.114 108.114 0 0 1 24.991-3.278c14.28 0 23.932 4.016 27.179 11.309 1.713 3.847 1.578 8.38-.4 13.471-1.912 4.918-5.455 10.147-10.531 15.544a112.128 112.128 0 0 1-18.883 15.726 166.406 166.406 0 0 1-25.456 14.018 165.455 165.455 0 0 1-28.48 9.79 108.11 108.11 0 0 1-24.991 3.281zm-210.641-36.7a111.272 111.272 0 0 1-24.516-3.037 166.23 166.23 0 0 1-27.825-9.106 166.383 166.383 0 0 1-25.7-13.57 112.127 112.127 0 0 1-19.151-15.4c-5.17-5.307-8.8-10.474-10.8-15.358-2.068-5.056-2.282-9.585-.637-13.462 1.633-3.846 5-6.822 10.01-8.846 4.839-1.955 11-2.947 18.319-2.947a111.313 111.313 0 0 1 24.516 3.038 172.207 172.207 0 0 1 53.521 22.677 112.133 112.133 0 0 1 19.155 15.398c5.169 5.307 8.8 10.474 10.8 15.357 2.068 5.056 2.282 9.585.637 13.462-1.632 3.846-5 6.822-10.01 8.847-4.837 1.956-11.001 2.947-18.319 2.948zm-176.385 0a111.273 111.273 0 0 1-24.516-3.037 166.23 166.23 0 0 1-27.823-9.106 166.384 166.384 0 0 1-25.7-13.571 112.134 112.134 0 0 1-19.151-15.399c-5.169-5.307-8.8-10.474-10.8-15.358-2.068-5.056-2.282-9.585-.637-13.462 1.632-3.846 5-6.822 10.01-8.846 4.839-1.955 11-2.947 18.319-2.947a111.312 111.312 0 0 1 24.516 3.038 172.216 172.216 0 0 1 53.521 22.677 112.126 112.126 0 0 1 19.154 15.398c5.169 5.306 8.8 10.473 10.8 15.357 2.068 5.056 2.282 9.585.637 13.462-1.633 3.846-5 6.822-10.011 8.847-4.837 1.956-11 2.947-18.318 2.948zm610.745-25.2a111.277 111.277 0 0 1-24.516-3.037 166.18 166.18 0 0 1-27.823-9.107 166.388 166.388 0 0 1-25.7-13.571 112.123 112.123 0 0 1-19.155-15.394c-5.17-5.307-8.8-10.474-10.8-15.358-2.068-5.056-2.282-9.585-.637-13.462 1.632-3.846 5-6.822 10.01-8.847 4.839-1.955 11-2.947 18.319-2.947a111.323 111.323 0 0 1 24.516 3.037 172.19 172.19 0 0 1 53.521 22.678A112.12 112.12 0 0 1 1305.394 123c5.17 5.307 8.8 10.474 10.8 15.358 2.068 5.056 2.282 9.585.637 13.462-1.633 3.845-5 6.822-10.01 8.846-4.838 1.958-11.001 2.949-18.321 2.95zm-292.8-38.6c-2.086 0-4.228-.019-6.366-.056a336.432 336.432 0 0 1-57.588-5.815c-8.753-1.687-17.187-3.733-25.069-6.081a195.161 195.161 0 0 1-21.8-7.854 129.976 129.976 0 0 1-17.934-9.371A77.168 77.168 0 0 1 853.466 85.2a42.984 42.984 0 0 1-8.433-11.636 26.736 26.736 0 0 1 .273-24.352 42.046 42.046 0 0 1 8.4-11.079 74.366 74.366 0 0 1 13.183-9.973 124.579 124.579 0 0 1 17.411-8.643 187.233 187.233 0 0 1 21.08-7.105c7.607-2.1 15.748-3.893 24.2-5.344a329.292 329.292 0 0 1 55.52-4.537c2.106 0 4.248.019 6.367.056a336.457 336.457 0 0 1 57.591 5.813c8.753 1.687 17.187 3.732 25.069 6.08a195.141 195.141 0 0 1 21.8 7.854 129.974 129.974 0 0 1 17.934 9.371 77.171 77.171 0 0 1 13.479 10.632 42.984 42.984 0 0 1 8.433 11.636 26.735 26.735 0 0 1-.273 24.353 42.051 42.051 0 0 1-8.4 11.08 74.364 74.364 0 0 1-13.182 9.972 124.546 124.546 0 0 1-17.409 8.647 187.223 187.223 0 0 1-21.08 7.1c-7.607 2.1-15.748 3.893-24.2 5.344a329.336 329.336 0 0 1-55.529 4.544z" class="cls-1" data-name="Bg L bottomright" transform="translate(-431.666 -2.531)"/>
</svg>
