<svg xmlns="http://www.w3.org/2000/svg" width="347.297" height="454.138" viewBox="0 0 347.297 454.138">
    <defs>
        <style>
            .cls-1{fill:#fc0}
        </style>
    </defs>
    <path id="Bg_L_H_bottomright" d="M540.482 678H458.75a243.277 243.277 0 0 1-20.777-29.516 275.006 275.006 0 0 1-2.3-3.9 234.017 234.017 0 0 1-16.936-35.784 154.567 154.567 0 0 1-8.427-32.29 88.519 88.519 0 0 1-.864-13.787 52.851 52.851 0 0 1 1.453-11.657 29.882 29.882 0 0 1 3.834-9.108 19.57 19.57 0 0 1 6.277-6.141 20.271 20.271 0 0 1 10.6-2.759c5.45 0 11.637 1.71 18.388 5.082a102.6 102.6 0 0 1 20.817 14.357 182.411 182.411 0 0 1 21.443 22.295 243.928 243.928 0 0 1 20.267 28.9 236.88 236.88 0 0 1 19.064 39.222 178.413 178.413 0 0 1 5.758 18.336 127.615 127.615 0 0 1 3.135 16.75zm-217.934 0h-63.237a62.194 62.194 0 0 1-2.068-3.327 35.152 35.152 0 0 1-4.7-12.322c-.534-3.8.1-6.932 1.888-9.3a10.571 10.571 0 0 1 4.786-3.471 19.662 19.662 0 0 1 7-1.131c5.645 0 12.622 1.684 20.177 4.869A113.221 113.221 0 0 1 310 667.158 121.469 121.469 0 0 1 322.547 678zM580.7 633.233a12.854 12.854 0 0 1-8.156-3.391 34.548 34.548 0 0 1-7.468-9.37 76.814 76.814 0 0 1-6.863-16.546 122.227 122.227 0 0 1-4.513-41.656 79.682 79.682 0 0 1 2.969-17.209 35.567 35.567 0 0 1 5.824-12c2.43-3.027 5.172-4.721 8.149-5.034a9.515 9.515 0 0 1 .993-.052c2.9 0 5.84 1.308 8.735 3.889a38.147 38.147 0 0 1 7.887 10.674c4.991 9.42 8.529 22.116 9.961 35.75a118.233 118.233 0 0 1 .418 20.648 79.676 79.676 0 0 1-2.969 17.21 35.568 35.568 0 0 1-5.825 12.005c-2.43 3.028-5.172 4.721-8.149 5.034a9.563 9.563 0 0 1-.993.048zm-277.157-9.344a12.852 12.852 0 0 1-8.156-3.391 34.557 34.557 0 0 1-7.468-9.37 76.8 76.8 0 0 1-6.863-16.545 122.206 122.206 0 0 1-4.513-41.656 79.684 79.684 0 0 1 2.969-17.21 35.569 35.569 0 0 1 5.825-12c2.43-3.028 5.172-4.721 8.149-5.034a9.526 9.526 0 0 1 .993-.052c2.9 0 5.84 1.308 8.734 3.889a38.15 38.15 0 0 1 7.887 10.674c4.991 9.42 8.529 22.116 9.962 35.75a118.249 118.249 0 0 1 .418 20.649 79.678 79.678 0 0 1-2.969 17.21 35.566 35.566 0 0 1-5.825 12c-2.43 3.027-5.172 4.721-8.149 5.034a9.538 9.538 0 0 1-.998.052zm67.011-120.683c-5.644 0-12.621-1.683-20.176-4.869a113.217 113.217 0 0 1-23.608-13.844 118.073 118.073 0 0 1-15.494-13.893 79.116 79.116 0 0 1-10.581-14 35.142 35.142 0 0 1-4.7-12.322c-.534-3.8.1-6.932 1.888-9.3a10.572 10.572 0 0 1 4.787-3.471 19.664 19.664 0 0 1 7-1.131c5.644 0 12.621 1.684 20.176 4.869a113.223 113.223 0 0 1 23.608 13.844 118.228 118.228 0 0 1 15.387 13.776 79.682 79.682 0 0 1 10.559 13.9 35.571 35.571 0 0 1 4.807 12.447c.557 3.842-.074 7-1.876 9.392a10.571 10.571 0 0 1-4.787 3.471 19.67 19.67 0 0 1-6.993 1.13zm229.109-8.153c-5.615-.283-12.409-2.1-19.646-5.26a114.429 114.429 0 0 1-22.6-13.411 118.106 118.106 0 0 1-15.491-13.889 79.124 79.124 0 0 1-10.581-14.009 35.146 35.146 0 0 1-4.7-12.322c-.534-3.8.1-6.932 1.889-9.3a10.57 10.57 0 0 1 4.786-3.471 19.664 19.664 0 0 1 7-1.131c5.644 0 12.621 1.684 20.176 4.869a113.216 113.216 0 0 1 23.604 13.838 118.02 118.02 0 0 1 15.561 13.964zm-120.914-96.385a12.855 12.855 0 0 1-8.156-3.391 34.56 34.56 0 0 1-7.469-9.37 76.806 76.806 0 0 1-6.863-16.546 122.242 122.242 0 0 1-4.513-41.656 79.683 79.683 0 0 1 2.969-17.21 35.566 35.566 0 0 1 5.824-12c2.43-3.028 5.172-4.721 8.148-5.034a9.558 9.558 0 0 1 .992-.052c2.9 0 5.84 1.308 8.735 3.889a38.145 38.145 0 0 1 7.887 10.674c4.991 9.419 8.528 22.116 9.961 35.751a118.25 118.25 0 0 1 .418 20.649 79.681 79.681 0 0 1-2.969 17.21 35.569 35.569 0 0 1-5.824 12c-2.43 3.027-5.171 4.721-8.148 5.034a9.54 9.54 0 0 1-.992.052zm-178-69.545a12.854 12.854 0 0 1-8.156-3.392 34.56 34.56 0 0 1-7.469-9.369 76.807 76.807 0 0 1-6.863-16.545 122.243 122.243 0 0 1-4.513-41.656 79.687 79.687 0 0 1 2.969-17.21 35.566 35.566 0 0 1 5.824-12c2.43-3.027 5.172-4.721 8.148-5.034a9.536 9.536 0 0 1 .994-.052c2.9 0 5.84 1.308 8.735 3.889a38.146 38.146 0 0 1 7.886 10.674c4.99 9.419 8.528 22.116 9.961 35.75a118.242 118.242 0 0 1 .419 20.648 79.682 79.682 0 0 1-2.968 17.21 35.567 35.567 0 0 1-5.824 12c-2.43 3.027-5.172 4.721-8.148 5.034a9.551 9.551 0 0 1-.997.054zm264.281-22.879c-5.645 0-12.622-1.683-20.177-4.869a113.219 113.219 0 0 1-23.608-13.844 118.111 118.111 0 0 1-15.491-13.888 79.1 79.1 0 0 1-10.581-14.01 35.138 35.138 0 0 1-4.7-12.322c-.534-3.8.1-6.932 1.888-9.3a10.573 10.573 0 0 1 4.787-3.471 19.664 19.664 0 0 1 7-1.131c5.644 0 12.621 1.684 20.176 4.869a113.219 113.219 0 0 1 23.608 13.844 118.251 118.251 0 0 1 15.385 13.778 79.692 79.692 0 0 1 10.562 13.9 35.571 35.571 0 0 1 4.808 12.447c.557 3.842-.074 7-1.875 9.393a10.572 10.572 0 0 1-4.786 3.47 19.671 19.671 0 0 1-6.996 1.134z" class="cls-1" data-name="Bg L H bottomright" transform="translate(-252.364 -223.862)"/>
</svg>
