<svg xmlns="http://www.w3.org/2000/svg" width="536.806" height="565.373" viewBox="0 0 536.806 565.373">
    <defs>
        <style>
            .cls-1{fill:#fff}
        </style>
    </defs>
    <g id="Bg_topright" data-name="Bg topright" transform="translate(12673.354 -4128)">
        <ellipse id="Ellipse_123" cx="106.262" cy="43.882" class="cls-1" data-name="Ellipse 123" rx="106.262" ry="43.882" transform="rotate(89.03 -8277.704 -4216.675)"/>
        <ellipse id="Ellipse_129" cx="53.346" cy="22.371" class="cls-1" data-name="Ellipse 129" rx="53.346" ry="22.371" transform="scale(-1) rotate(-66 2822.676 -11836.549)"/>
        <ellipse id="Ellipse_130" cx="53.346" cy="22.371" class="cls-1" data-name="Ellipse 130" rx="53.346" ry="22.371" transform="scale(-1) rotate(-66 3005.382 -11685.899)"/>
        <ellipse id="Ellipse_131" cx="53.346" cy="22.371" class="cls-1" data-name="Ellipse 131" rx="53.346" ry="22.371" transform="scale(-1) rotate(-66 2772.812 -11577.1)"/>
        <ellipse id="Ellipse_150" cx="53.346" cy="22.371" class="cls-1" data-name="Ellipse 150" rx="53.346" ry="22.371" transform="scale(-1) rotate(-66 2646.6 -11819.094)"/>
        <ellipse id="Ellipse_137" cx="53.346" cy="22.371" class="cls-1" data-name="Ellipse 137" rx="53.346" ry="22.371" transform="scale(-1) rotate(-66 3095.249 -11752.746)"/>
        <ellipse id="Ellipse_138" cx="53.346" cy="22.371" class="cls-1" data-name="Ellipse 138" rx="53.346" ry="22.371" transform="rotate(67 -9509.957 -7347.395)"/>
        <ellipse id="Ellipse_139" cx="53.346" cy="22.371" class="cls-1" data-name="Ellipse 139" rx="53.346" ry="22.371" transform="rotate(67 -9680.15 -7303.886)"/>
        <path id="Subtraction_4" d="M647.929 495.868a18.122 18.122 0 0 1-9.214-3.03 46.961 46.961 0 0 1-9.947-8.48 88.271 88.271 0 0 1-9.738-13.012A124.573 124.573 0 0 1 604.6 437.6a90.486 90.486 0 0 1-2.678-15.6h41.968a122.324 122.324 0 0 1 7.738 15.24 119.307 119.307 0 0 1 6.494 19.8 80.414 80.414 0 0 1 2.212 17.482 35.9 35.9 0 0 1-2.078 13.3c-1.451 3.639-3.6 6.082-6.376 7.262a10.07 10.07 0 0 1-3.951.784zM541.5 467.027a20.738 20.738 0 0 1-10.778-3.2 38.2 38.2 0 0 1-9.9-9.089 76.222 76.222 0 0 1-8.693-14.2A130.775 130.775 0 0 1 504.981 422h71.746a127.431 127.431 0 0 1-6.547 18.4 73.922 73.922 0 0 1-8.2 14.151 37.092 37.092 0 0 1-9.553 9.132 20.472 20.472 0 0 1-10.6 3.343h-.027zm-223.117-13.322a16.955 16.955 0 0 1-7.9-2.277 39.657 39.657 0 0 1-8.539-6.438c-5.925-5.7-11.656-13.645-16.573-22.99h44.569c1.177 7.8 1.131 14.766-.131 20.135a20.373 20.373 0 0 1-2.809 6.823 10.719 10.719 0 0 1-4.655 3.967 10.066 10.066 0 0 1-3.962.78zm374.551-27.977A21.1 21.1 0 0 1 681.319 422h23.133a20.73 20.73 0 0 1-11.195 3.726zm-513.672 0A21.1 21.1 0 0 1 167.646 422h23.132a20.73 20.73 0 0 1-11.195 3.726z" class="cls-1" data-name="Subtraction 4" transform="translate(-12841 3706)"/>
        <ellipse id="Ellipse_148" cx="53.346" cy="22.371" class="cls-1" data-name="Ellipse 148" rx="53.346" ry="22.371" transform="rotate(67 -9288.412 -7110.055)"/>
        <ellipse id="Ellipse_149" cx="53.346" cy="22.371" class="cls-1" data-name="Ellipse 149" rx="53.346" ry="22.371" transform="rotate(67 -9489.7 -7137.52)"/>
    </g>
</svg>
