<svg xmlns="http://www.w3.org/2000/svg" width="1370.115" height="622.121" viewBox="0 0 1370.115 622.121">
    <defs>
        <style>
            .cls-1{fill:#fc0;stroke:rgba(0,0,0,0)}
        </style>
    </defs>
    <path id="Bg_Yellow_L" d="M8825.484-2303.4c-154.263-24.065-267.915-22.43-360.271-20.793-88.327 1.565-157.172 3.133-223.441-17.783h-.779v-500h1.228c-.813-.648-1.228-.981-1.228-.981 106.912-46.72 419.324-75.655 783.916-30.642 154.354 19.054 268.072 17.759 360.483 16.464 88.543-1.242 157.527-2.484 223.951 14.178 0 0-.217.334-.646.981h.646v500h-.619c-69.438 38.224-225.068 66.988-425.271 66.983-108.453-.007-230.022-8.45-357.969-28.407z" class="cls-1" data-name="Bg Yellow L" transform="translate(-8240.032 2896.615)"/>
</svg>
