<svg xmlns="http://www.w3.org/2000/svg" width="119.299" height="83.645" viewBox="0 0 119.299 83.645">
    <defs>
        <style>
            .cls-1{fill:#e6e6e6}.cls-2{fill:#5d5d5d}.cls-3{fill:#7d7d7d}.cls-4{fill:#f3f4f6}.cls-5{fill:#d6d6d6}.cls-6{fill:#005a9b}.cls-7{fill:#ffcc06}.cls-8{fill:#474747}
        </style>
    </defs>
    <g id="Group_993" data-name="Group 993" transform="translate(-621.992 -4076.417)">
        <ellipse id="Ellipse_74" cx="59.649" cy="3.535" class="cls-1" data-name="Ellipse 74" rx="59.649" ry="3.535" transform="translate(621.992 4152.992)"/>
        <g id="Group_458" data-name="Group 458" transform="translate(628.992 4076.418)">
            <g id="Group_453" data-name="Group 453">
                <rect id="Rectangle_465" width="80.539" height="106.596" class="cls-2" data-name="Rectangle 465" rx="9.449" transform="rotate(90 53.298 53.298)"/>
                <path id="Path_624" d="M557.55 237.882H480.6a3.675 3.675 0 0 0-3.675 3.675v73.188a3.675 3.675 0 0 0 3.675 3.675h15.187z" class="cls-3" data-name="Path 624" transform="translate(-476.923 -237.882)"/>
                <rect id="Rectangle_466" width="71.18" height="96.759" class="cls-4" data-name="Rectangle 466" rx="3.862" transform="rotate(90 48.499 53.179)"/>
            </g>
            <g id="Group_457" data-name="Group 457" transform="translate(13.3 13.288)">
                <g id="Group_456" data-name="Group 456">
                    <g id="Group_454" data-name="Group 454" transform="translate(0 23.495)">
                        <path id="Path_625" d="M597.831 353.128h-78.76c-.514 0-.93-.279-.93-.623s.416-.623.93-.623h78.76c.514 0 .93.279.93.623.001.344-.416.623-.93.623z" class="cls-5" data-name="Path 625" transform="translate(-518.141 -351.881)"/>
                        <path id="Path_626" d="M597.831 361.65h-78.76c-.514 0-.93-.279-.93-.623s.416-.623.93-.623h78.76c.514 0 .93.279.93.623.001.344-.416.623-.93.623z" class="cls-5" data-name="Path 626" transform="translate(-518.141 -357.653)"/>
                        <path id="Path_627" d="M597.831 370.172h-78.76c-.514 0-.93-.279-.93-.623s.416-.623.93-.623h78.76c.514 0 .93.279.93.623.001.344-.416.623-.93.623z" class="cls-5" data-name="Path 627" transform="translate(-518.141 -363.426)"/>
                        <path id="Path_628" d="M597.831 378.694h-78.76c-.514 0-.93-.279-.93-.623s.416-.623.93-.623h78.76c.514 0 .93.279.93.623.001.344-.416.623-.93.623z" class="cls-5" data-name="Path 628" transform="translate(-518.141 -369.198)"/>
                    </g>
                    <g id="Group_455" data-name="Group 455" transform="translate(0 36.111)">
                        <path id="Path_629" d="M597.831 392.227h-78.76c-.514 0-.93-.279-.93-.623s.416-.623.93-.623h78.76c.514 0 .93.279.93.623.001.344-.416.623-.93.623z" class="cls-5" data-name="Path 629" transform="translate(-518.141 -390.98)"/>
                        <path id="Path_630" d="M597.831 400.749h-78.76c-.514 0-.93-.279-.93-.623s.416-.623.93-.623h78.76c.514 0 .93.279.93.623.001.344-.416.623-.93.623z" class="cls-5" data-name="Path 630" transform="translate(-518.141 -396.752)"/>
                        <path id="Path_631" d="M597.831 409.271h-78.76c-.514 0-.93-.279-.93-.623s.416-.623.93-.623h78.76c.514 0 .93.279.93.623.001.344-.416.623-.93.623z" class="cls-5" data-name="Path 631" transform="translate(-518.141 -402.525)"/>
                        <path id="Path_632" d="M597.831 417.793h-78.76c-.514 0-.93-.279-.93-.623s.416-.623.93-.623h78.76c.514 0 .93.279.93.623.001.344-.416.623-.93.623z" class="cls-5" data-name="Path 632" transform="translate(-518.141 -408.297)"/>
                    </g>
                    <path id="Path_633" d="M529.129 279.064a10.986 10.986 0 0 0-7.119 19.355c.959-3.447 3.276-6.01 6.083-6.522a4.074 4.074 0 1 1 2.073 0c2.806.512 5.124 3.075 6.082 6.522a10.986 10.986 0 0 0-7.119-19.355z" class="cls-6" data-name="Path 633" transform="translate(-518.141 -279.064)"/>
                </g>
            </g>
        </g>
        <g id="Group_459" data-name="Group 459" transform="translate(665.895 4096.822)">
            <path id="Path_634" d="M614.993 317.392h-14.435v-11.783c.057-.588.77-.925 1.96-.925h11.44c.278.056 1.034.281 1.034 1.066v11.642zm6.951 0h-3.386v-11.641-.074a4.708 4.708 0 0 0-4.219-4.541 1.822 1.822 0 0 0-.233-.016h-11.588a5.761 5.761 0 0 0-4.261 1.519 4.308 4.308 0 0 0-1.263 2.933v11.82h-3.564a2.139 2.139 0 0 0-2.139 2.139v19.18a2.138 2.138 0 0 0 2.139 2.139h28.514a2.138 2.138 0 0 0 2.139-2.139v-19.18a2.139 2.139 0 0 0-2.139-2.139z" class="cls-7" data-name="Path 634" transform="translate(-591.291 -301.12)"/>
            <path id="Path_635" d="M600.558 317.392v-11.783c.057-.588.77-.925 1.96-.925h11.44c.278.056 1.034.281 1.034 1.066v5.85l3.562-5.924a4.708 4.708 0 0 0-4.219-4.541 1.822 1.822 0 0 0-.233-.016h-11.584a5.761 5.761 0 0 0-4.261 1.519 4.308 4.308 0 0 0-1.263 2.933v11.82h-3.564a2.139 2.139 0 0 0-2.139 2.139v19.18a2.138 2.138 0 0 0 2.139 2.139h3.97l14.106-23.457z" class="cls-7" data-name="Path 635" transform="translate(-591.291 -301.12)"/>
            <path id="Path_636" d="M635.941 368.665a4.1 4.1 0 1 0-5.747 3.753v5.559a1.648 1.648 0 1 0 3.3 0v-5.559a4.1 4.1 0 0 0 2.45-3.753z" class="cls-8" data-name="Path 636" transform="translate(-615.981 -344.095)"/>
        </g>
    </g>
</svg>
