<svg xmlns="http://www.w3.org/2000/svg" width="130.197" height="80.914" viewBox="0 0 130.197 80.914">
    <defs>
        <style>
            .cls-1{fill:#e6e6e6}.cls-2{fill:#c02038}.cls-3{fill:#fff}.cls-4{fill:#8f3946}.cls-5{fill:#ffcc06}.cls-6{fill:#c2a845}.cls-7{fill:#005a9b}
        </style>
    </defs>
    <g id="Group_506" data-name="Group 506">
        <ellipse id="Ellipse_79" cx="34.633" cy="2.35" class="cls-1" data-name="Ellipse 79" rx="34.633" ry="2.35" transform="translate(30.466 76.214)"/>
        <g id="Group_505" data-name="Group 505">
            <path id="Path_676" d="M673.272 281.522c0-12.416 12.508-22.482 27.938-22.482s27.938 10.065 27.938 22.482c0 11.54-10.807 21.044-24.72 22.328-4.515 4.244-11.118 6.774-18.4 6.9a19.143 19.143 0 0 0 5.137-8.246c-10.465-3.249-17.893-11.415-17.893-20.982z" class="cls-2" data-name="Path 676" transform="translate(-598.951 -251.759)"/>
            <g id="Group_502" data-name="Group 502" transform="translate(99.955 18.443)">
                <path id="Path_677" d="M770.114 312.935c0-3.4 5.83-4.6 5.83-7.4 0-1.166-1.034-1.866-2.865-1.866a8.617 8.617 0 0 0-5.266 1.866l-2.064-3.166a12.566 12.566 0 0 1 8.23-3.064c4.362 0 7.428 2.331 7.428 5.93 0 5.164-6.364 6.564-6.364 8.561a2.936 2.936 0 0 0 .068.766h-4.763a4.594 4.594 0 0 1-.234-1.627zm-.466 6.363a3.139 3.139 0 0 1 6.264 0 3.144 3.144 0 0 1-6.264 0z" class="cls-3" data-name="Path 677" transform="translate(-765.749 -299.309)"/>
            </g>
            <path id="Path_678" d="M701.553 291.654c0-9.326-5.175-17.679-13.338-23.3-8.883 3.764-14.943 11.261-14.943 19.9 0 9.567 7.43 17.733 17.9 20.979a18.622 18.622 0 0 1-2.859 5.65c8.104-5.625 13.24-13.942 13.24-23.229z" class="cls-4" data-name="Path 678" transform="translate(-598.951 -258.488)"/>
            <path id="Path_679" d="M559.842 263.439c0-16.937-17.062-30.667-38.109-30.667s-38.11 13.73-38.11 30.667c0 15.741 14.741 28.705 33.72 30.457 6.16 5.789 15.166 9.24 25.094 9.409a26.12 26.12 0 0 1-7.007-11.249c14.277-4.428 24.412-15.567 24.412-28.617z" class="cls-5" data-name="Path 679" transform="translate(-461.871 -232.772)"/>
            <path id="Path_680" d="M504.208 259.6c0-9.836-9.908-17.809-22.131-17.809s-2.549 35.5-2.549 35.5a21.793 21.793 0 0 0 14.573 5.464 15.167 15.167 0 0 1-4.069-6.533c8.29-2.578 14.176-9.047 14.176-16.622z" class="cls-6" data-name="Path 680" transform="translate(-456.284 -239.288)"/>
            <path id="Path_681" d="M449.412 250.581c0-9.836-9.908-17.809-22.131-17.809s-22.132 7.973-22.132 17.809c0 9.142 8.561 16.67 19.582 17.688a21.792 21.792 0 0 0 14.573 5.464 15.168 15.168 0 0 1-4.069-6.533c8.292-2.571 14.177-9.04 14.177-16.619z" class="cls-7" data-name="Path 681" transform="translate(-405.149 -232.772)"/>
            <g id="Group_503" data-name="Group 503" transform="translate(53.008 17.314)">
                <path id="Path_682" d="M601.733 311.942c0-4.168 7.148-5.638 7.148-9.069 0-1.43-1.267-2.288-3.512-2.288a10.565 10.565 0 0 0-6.456 2.288l-2.531-3.882a15.407 15.407 0 0 1 10.091-3.757c5.348 0 9.107 2.859 9.107 7.271 0 6.331-7.8 8.048-7.8 10.5a3.589 3.589 0 0 0 .083.94h-5.843a5.633 5.633 0 0 1-.287-2.003zm-.572 7.8a3.848 3.848 0 0 1 7.68 0 3.855 3.855 0 0 1-7.68 0z" class="cls-3" data-name="Path 682" transform="translate(-596.382 -295.235)"/>
            </g>
            <g id="Group_504" data-name="Group 504" transform="translate(15.319 11.091)">
                <path id="Path_683" d="M464 283.981c0-2.793 4.79-3.778 4.79-6.078 0-.959-.849-1.534-2.354-1.534a7.081 7.081 0 0 0-4.327 1.534l-1.7-2.6a10.327 10.327 0 0 1 6.763-2.518c3.584 0 6.1 1.916 6.1 4.873 0 4.243-5.229 5.393-5.229 7.035a2.408 2.408 0 0 0 .056.63h-3.914a3.775 3.775 0 0 1-.185-1.342zm-.384 5.228a2.579 2.579 0 0 1 5.147 0 2.584 2.584 0 0 1-5.147 0z" class="cls-3" data-name="Path 683" transform="translate(-460.414 -272.784)"/>
            </g>
        </g>
    </g>
</svg>
