<svg xmlns="http://www.w3.org/2000/svg" width="103.087" height="95.477" viewBox="0 0 103.087 95.477">
    <defs>
        <style>
            .cls-1{fill:#337baf}.cls-2{fill:#cc4e60}.cls-3{fill:#474748}.cls-4{fill:#ffcc06}.cls-5{fill:#ccc}
        </style>
    </defs>
    <g id="Group_985" data-name="Group 985" transform="translate(-629.992 -752.158)">
        <g id="Group_431" data-name="Group 431" transform="translate(407.001 4.95)">
            <g id="Group_430" data-name="Group 430" transform="translate(222.991 747.208)">
                <g id="Group_429" data-name="Group 429">
                    <path id="Path_573" d="M647.594 504.152l-22.2-20.319-3.174-9.633a5.575 5.575 0 0 0-10.6 3.454l3.631 11.007a5.541 5.541 0 0 0 1.521 2.351l4.008 3.67-24.891 23.2a4.151 4.151 0 0 0-.35.327l-6.567 6.879a4.151 4.151 0 0 0 .157 5.9 4.214 4.214 0 0 0 5.932-.155l3.167-3.121-2.386 2.878a4.451 4.451 0 0 0 3.453 7.277 4.512 4.512 0 0 0 2.276-.617 4.427 4.427 0 0 0 .71 5.316 4.472 4.472 0 0 0 3.184 1.323 5.18 5.18 0 0 0 2.65-.7 4.428 4.428 0 0 0 .225 5.957 4.5 4.5 0 0 0 6.33.085l4.457-4.312c.041-.039.078-.079.115-.118l2.249 2.521 20.657-21.2.151.289h27.014v-22.259z" class="cls-1" data-name="Path 573" transform="translate(-566.808 -470.379)"/>
                    <path id="Path_574" d="M665.188 565.635l-3.71-4.994a4.476 4.476 0 0 0-8.068 2.58 4.477 4.477 0 0 0-6.946 5.454l3.085 5.639-3.964-5.62a4.476 4.476 0 1 0-7.316 5.16l2.332 3.307-2.16-2.6a4.2 4.2 0 1 0-6.453 5.365l4.321 5.2a4.2 4.2 0 0 0 7.286-3.751 4.475 4.475 0 0 0 7.746-4.074 4.476 4.476 0 0 0 7.21-5.192l-.827-1.513.278.376a4.477 4.477 0 1 0 7.187-5.339z" class="cls-2" data-name="Path 574" transform="translate(-584.79 -508.133)"/>
                    <path id="Path_575" d="M614.683 504.372l-15.732-9.463a5.035 5.035 0 0 0-6.73 1.443 6.733 6.733 0 0 0-1.133 1.127l-13.362 16.912h-23.9v22.383h19.979c.171-.831 4.149-4.728 4.492-5.163l24.107-22.87 3.6 2.166-2.765 8.107a5.036 5.036 0 1 0 9.533 3.252l4.078-11.954a5.036 5.036 0 0 0-2.167-5.94z" class="cls-2" data-name="Path 575" transform="translate(-551.844 -480.588)"/>
                    <g id="Group_427" data-name="Group 427" transform="translate(0 31.943)">
                        <path id="Rectangle_451" d="M0 0h16.714v26.788H0z" class="cls-3" data-name="Rectangle 451"/>
                    </g>
                    <g id="Group_428" data-name="Group 428" transform="translate(86.374 32.765)">
                        <path id="Rectangle_452" d="M0 0h16.714v26.789H0z" class="cls-4" data-name="Rectangle 452"/>
                    </g>
                </g>
            </g>
        </g>
        <ellipse id="Ellipse_67" cx="28.841" cy="3.074" class="cls-5" data-name="Ellipse 67" rx="28.841" ry="3.074" transform="translate(652.992 841.486)"/>
    </g>
</svg>
