<svg xmlns="http://www.w3.org/2000/svg" width="95.263" height="89.308" viewBox="0 0 95.263 89.308">
    <defs>
        <style>
            .cls-1{fill:#e6e6e6}.cls-2{fill:#c02038}.cls-3{fill:#005a9b}.cls-4{fill:#ccdeeb}.cls-5{fill:#ffcc06}.cls-6{fill:#5d5d5d}.cls-7{fill:#fff}.cls-8{fill:#e2e2e2}
        </style>
    </defs>
    <g id="Group_994" data-name="Group 994" transform="translate(-633.992 -4469.754)">
        <ellipse id="Ellipse_75" cx="20.149" cy="2.035" class="cls-1" data-name="Ellipse 75" rx="20.149" ry="2.035" transform="translate(647.992 4554.992)"/>
        <g id="Group_467" data-name="Group 467" transform="translate(-84.428 3380.599)">
            <g id="Group_462" data-name="Group 462" transform="translate(718.42 1089.155)">
                <path id="Path_637" d="M803.743 1247.6a3.554 3.554 0 0 1-.885.9l-3.172 2.266a54.359 54.359 0 0 1-4.383-7.161 24.384 24.384 0 0 1-1.775-4.377c-.026-.078-.036-.135-.046-.171l7.234-1.728a23.327 23.327 0 0 0 1.987 4.357c.321.585.693 1.221 1.123 1.909a3.659 3.659 0 0 1-.083 4.005z" class="cls-2" data-name="Path 637" transform="translate(-766.769 -1184.592)"/>
                <path id="Path_638" d="M787.647 1261.078l-6.348 4.533a95.3 95.3 0 0 1-10.815-18.809 32.9 32.9 0 0 1-1.589-4.616l2.293-.543 5.836-1.392.667-.16 5.666-1.351-.016-.067a32.56 32.56 0 0 0 1.718 4.347c.683 1.474 1.61 3.3 2.846 5.448q.753 1.32 1.677 2.8a7.29 7.29 0 0 1-1.935 9.81z" class="cls-3" data-name="Path 638" transform="translate(-750.932 -1185.463)"/>
                <path id="Path_639" d="M787.641 1148.5l-22.328-3.431a19.722 19.722 0 0 0-7.989.4l-2.97.771-1.806.471-5.593 1.449-.8.206-5.816 1.511-2.37.616-1.739.45a10.556 10.556 0 0 1-12.868-7.565l-3.56-13.708-1.045-4.025a10.557 10.557 0 0 1 7.57-12.864l4.108-1.066 5.816-1.511 11.172-2.9a19.846 19.846 0 0 0 7.176-3.529l17.842-13.857a3.657 3.657 0 0 1 5.78 1.971l1.148 4.435 7.25 27.921 5.117 19.719a3.656 3.656 0 0 1-4.095 4.536z" class="cls-4" data-name="Path 639" transform="translate(-718.42 -1089.155)"/>
                <g id="Group_461" data-name="Group 461" transform="translate(12.019 21.051)">
                    <path id="Path_640" d="M767.911 1186.469l-5.815 1.509a176.339 176.339 0 0 1-9.9-38.161l5.816-1.509a170.186 170.186 0 0 0 9.899 38.161z" class="cls-2" data-name="Path 640" transform="translate(-752.194 -1148.308)"/>
                </g>
            </g>
            <g id="Group_463" data-name="Group 463" transform="translate(794.457 1111.961)">
                <path id="Path_641" d="M950.026 1157.9l-12.362-4.544a1.953 1.953 0 0 0-2.506 1.158l-2.958 8.049a1.951 1.951 0 0 0 1.159 2.506l1.207.444s.837 2.659 1.179 3.522a1.167 1.167 0 0 0 1.607.591c.82-.436 3.179-1.92 3.179-1.92l5.19 1.908a1.953 1.953 0 0 0 2.506-1.159l2.958-8.049a1.952 1.952 0 0 0-1.159-2.506z" class="cls-5" data-name="Path 641" transform="translate(-932.079 -1153.238)"/>
                <path id="Path_642" d="M956.4 1166.947l-10.023-3.684a.631.631 0 0 1 .436-1.185l10.022 3.684a.631.631 0 1 1-.436 1.185z" class="cls-6" data-name="Path 642" transform="translate(-941.024 -1158.907)"/>
                <path id="Path_643" d="M953.483 1174.891l-10.023-3.684a.631.631 0 0 1 .435-1.185l10.023 3.685a.631.631 0 1 1-.435 1.184z" class="cls-6" data-name="Path 643" transform="translate(-939.143 -1164.024)"/>
                <path id="Path_644" d="M945.058 1180.813l-4.518-1.661a.631.631 0 1 1 .435-1.184l4.518 1.661a.631.631 0 1 1-.435 1.185z" class="cls-6" data-name="Path 644" transform="translate(-937.262 -1169.142)"/>
            </g>
            <g id="Group_466" data-name="Group 466" transform="translate(783.929 1094.851)">
                <path id="Path_645" d="M913.62 1105.725l4.93 6.611-13.485-1.928 6.584-4.966a1.4 1.4 0 0 1 1.971.283z" class="cls-5" data-name="Path 645" transform="translate(-904.15 -1105.159)"/>
                <g id="Group_464" data-name="Group 464" transform="translate(0 4.707)">
                    <path id="Path_646" d="M916.893 1120.866l-.906 6.34a.642.642 0 0 1-.727.545l-12.213-1.746a.643.643 0 0 1-.545-.727l.906-6.34a.643.643 0 0 1 .727-.545l12.213 1.745a.643.643 0 0 1 .545.727z" class="cls-5" data-name="Path 646" transform="translate(-902.495 -1118.386)"/>
                    <path id="Path_647" d="M918.9 1120.365l-1.527.9-4.215 2.474a2.241 2.241 0 0 1-2.758-.394l-3.353-3.556-1.215-1.29a.647.647 0 0 1 .451-.1l12.214 1.746a.645.645 0 0 1 .403.22z" class="cls-5" data-name="Path 647" transform="translate(-904.646 -1118.386)"/>
                </g>
                <g id="Group_465" data-name="Group 465" transform="translate(2.404 .894)">
                    <path id="Path_648" d="M920.173 1110.171l-.6 4.19-4.215 2.474a2.24 2.24 0 0 1-2.758-.394l-3.353-3.556.6-4.191a1.192 1.192 0 0 1 1.35-1.012l7.964 1.139a1.192 1.192 0 0 1 1.012 1.35z" class="cls-7" data-name="Path 648" transform="translate(-909.249 -1107.671)"/>
                    <path id="Path_649" d="M921.714 1114.431l-6.457-.923a.386.386 0 0 1 .109-.763l6.457.923a.386.386 0 0 1-.109.763z" class="cls-8" data-name="Path 649" transform="translate(-912.905 -1110.937)"/>
                    <path id="Path_650" d="M920.983 1119.55l-6.457-.923a.386.386 0 0 1 .109-.763l6.457.923a.386.386 0 0 1-.109.763z" class="cls-8" data-name="Path 650" transform="translate(-912.435 -1114.234)"/>
                    <path id="Path_651" d="M916.705 1124.161l-2.911-.416a.386.386 0 1 1 .109-.763l2.911.416a.386.386 0 0 1-.109.763z" class="cls-8" data-name="Path 651" transform="translate(-911.963 -1117.531)"/>
                </g>
            </g>
        </g>
    </g>
</svg>
