<svg xmlns="http://www.w3.org/2000/svg" width="73.682" height="82.72" viewBox="0 0 73.682 82.72">
    <defs>
        <style>
            .cls-1{fill:#ccc}.cls-2{fill:#ffcc06}.cls-3{fill:#474747}.cls-4{fill:#005a9b}.cls-5{fill:#f5f6f7}
        </style>
    </defs>
    <g id="Group_986" data-name="Group 986" transform="translate(-644.992 -1066.361)">
        <ellipse id="Ellipse_68" cx="36.841" cy="3.074" class="cls-1" data-name="Ellipse 68" rx="36.841" ry="3.074" transform="translate(644.992 1142.933)"/>
        <g id="Group_434" data-name="Group 434" transform="translate(76.001 175.458)">
            <g id="Group_433" data-name="Group 433" transform="translate(572.991 890.903)">
                <g id="Group_432" data-name="Group 432">
                    <path id="Path_576" d="M622.074 511.223h-29.086v-23.742c.116-1.185 1.552-1.863 3.95-1.863h23.051c.56.113 2.084.566 2.084 2.148v23.458zm14 0h-6.823v-23.458-.15c-.086-6.353-5.583-8.763-8.5-9.15a3.552 3.552 0 0 0-.471-.031h-23.342c-3.683 0-6.572 1.03-8.587 3.06a8.676 8.676 0 0 0-2.545 5.911v23.817h-7.182a4.309 4.309 0 0 0-4.309 4.309v38.649a4.309 4.309 0 0 0 4.309 4.309h57.454a4.309 4.309 0 0 0 4.309-4.309v-38.647a4.309 4.309 0 0 0-4.309-4.309z" class="cls-2" data-name="Path 576" transform="translate(-574.315 -478.435)"/>
                    <path id="Path_577" d="M592.988 511.223v-23.742c.116-1.185 1.552-1.863 3.95-1.863h23.051c.56.113 2.084.566 2.084 2.148v11.787l7.178-11.936c-.086-6.353-5.583-8.763-8.5-9.15a3.552 3.552 0 0 0-.471-.031h-23.342c-3.683 0-6.572 1.03-8.587 3.06a8.676 8.676 0 0 0-2.545 5.911v23.817h-7.182a4.309 4.309 0 0 0-4.309 4.309v38.647a4.309 4.309 0 0 0 4.309 4.309h8.009l28.422-47.266z" class="cls-2" data-name="Path 577" transform="translate(-574.315 -478.435)"/>
                    <path id="Path_578" d="M627.286 550.14a8.259 8.259 0 1 0-11.586 7.56v11.2a3.322 3.322 0 0 0 6.644 0v-11.2a8.26 8.26 0 0 0 4.937-7.561z" class="cls-3" data-name="Path 578" transform="translate(-587.068 -500.631)"/>
                    <path id="Path_579" d="M657.076 495.231a14.529 14.529 0 1 1-14.53-14.531 14.529 14.529 0 0 1 14.529 14.528z" class="cls-4" data-name="Path 579" transform="translate(-591.383 -480.51)"/>
                    <path id="Path_580" d="M645.916 516.163a2.311 2.311 0 0 1-1.429-.493l-7.83-6.134a2.32 2.32 0 0 1 2.862-3.653l6.047 4.737 9.7-11.781a2.32 2.32 0 1 1 3.582 2.949l-11.136 13.53a2.316 2.316 0 0 1-1.792.845z" class="cls-5" data-name="Path 580" transform="translate(-596.233 -491.332)"/>
                </g>
            </g>
        </g>
    </g>
</svg>
