<svg xmlns="http://www.w3.org/2000/svg" width="122.363" height="88.536" viewBox="0 0 122.363 88.536">
    <defs>
        <style>
            .cls-1{fill:#a53924}.cls-2{fill:#b54e3a}.cls-3{fill:#f2684d}.cls-4{fill:#fff}.cls-5{fill:#ffcb09}.cls-6{fill:#284a65}.cls-7{fill:#c31612}.cls-8{fill:#e6e6e6}
        </style>
    </defs>
    <g id="Group_987" data-name="Group 987" transform="translate(-620.992 -1380.525)">
        <g id="Group_441" data-name="Group 441" transform="translate(7680.992 -5554.491)">
            <g id="Group_440" data-name="Group 440" transform="translate(-7060 6935.017)">
                <g id="Group_437" data-name="Group 437" transform="translate(0 20.925)">
                    <g id="Group_435" data-name="Group 435">
                        <path id="Path_581" d="M488.914 346.145l-.01-.015-15.455-25.337a4.458 4.458 0 0 0-7.622 4.627l.01.016 4.409 7.228-14.978-7.555-7.29-14.219a3.572 3.572 0 1 0-6.357 3.26l8.352 16.29 23.941 12.076a3.559 3.559 0 0 0 2.506.267l4.874 7.991a4.458 4.458 0 0 0 7.622-4.628z" class="cls-1" data-name="Path 581" transform="translate(-441.226 -308.946)"/>
                        <path id="Path_582" d="M456.147 337.649a3.814 3.814 0 0 0 1.352 1.33l32.878 19.106a3.827 3.827 0 0 0 3.846-6.618l-31.584-18.354-4.039-13.126a3.828 3.828 0 0 0-7.316 2.252l4.481 14.556a3.774 3.774 0 0 0 .382.854z" class="cls-2" data-name="Path 582" transform="translate(-448.07 -314.718)"/>
                        <path id="Path_583" d="M510.711 381.545a12.346 12.346 0 0 0-.05-17.414l-5.373-5.371-.047-.047a6.134 6.134 0 0 0-1.354-1 3.566 3.566 0 0 0-.315-.169l-30.778-14.507-1.784-12.071a3.163 3.163 0 0 0-2.9-2.736 3.115 3.115 0 0 0-3.275 3.563l2.116 14.317a3.325 3.325 0 0 0 .216.749 3.394 3.394 0 0 0 .177.424.156.156 0 0 1 .008.018 3.355 3.355 0 0 0 .893 1.107l.013.01a3.48 3.48 0 0 0 .448.307l28.661 19.657a3.29 3.29 0 0 0 .41.24l12.887 12.878.047.047z" class="cls-3" data-name="Path 583" transform="translate(-457.549 -322.291)"/>
                    </g>
                    <g id="Group_436" data-name="Group 436" transform="translate(65.632)">
                        <path id="Path_584" d="M682.391 346.145l.01-.015 15.455-25.337a4.458 4.458 0 0 1 7.622 4.627.115.115 0 0 1-.01.016l-4.409 7.228 14.978-7.555 7.29-14.219a3.572 3.572 0 1 1 6.357 3.26l-8.352 16.29-23.941 12.076a3.559 3.559 0 0 1-2.506.267l-4.874 7.991a4.458 4.458 0 0 1-7.622-4.628z" class="cls-1" data-name="Path 584" transform="translate(-673.348 -308.946)"/>
                        <path id="Path_585" d="M722.618 337.649a3.814 3.814 0 0 1-1.352 1.33l-32.878 19.106a3.827 3.827 0 0 1-3.846-6.618l31.584-18.354 4.039-13.127a3.828 3.828 0 0 1 7.316 2.252L723 336.8a3.775 3.775 0 0 1-.382.849z" class="cls-2" data-name="Path 585" transform="translate(-673.965 -314.718)"/>
                        <path id="Path_586" d="M658.027 381.545a12.346 12.346 0 0 1 .05-17.414l5.373-5.371.047-.047a6.134 6.134 0 0 1 1.354-1 3.558 3.558 0 0 1 .315-.169l30.778-14.507 1.784-12.071a3.163 3.163 0 0 1 2.9-2.736 3.115 3.115 0 0 1 3.275 3.563l-2.116 14.317a3.325 3.325 0 0 1-.216.749 3.394 3.394 0 0 1-.177.424.146.146 0 0 0-.008.018 3.355 3.355 0 0 1-.893 1.107l-.013.01a3.479 3.479 0 0 1-.448.307l-28.661 19.657a3.294 3.294 0 0 1-.41.24L658.074 381.5l-.047.047z" class="cls-3" data-name="Path 586" transform="translate(-654.459 -322.291)"/>
                    </g>
                </g>
                <g id="Group_439" data-name="Group 439" transform="translate(40.281)">
                    <path id="Rectangle_287" d="M0 0h41.909v41.909H0z" class="cls-4" data-name="Rectangle 287"/>
                    <path id="Rectangle_288" d="M0 0h37.718v37.718H0z" class="cls-5" data-name="Rectangle 288" transform="translate(2.095 2.096)"/>
                    <path id="Path_413" d="M2256.762 2617.765c9.837 0 17.812-3.284 17.812-7.334s-7.974-7.333-17.812-7.333-17.81 3.283-17.81 7.333 7.974 7.334 17.81 7.334" class="cls-6" data-name="Path 413" transform="translate(-2235.809 -2589.476)"/>
                    <path id="Path_414" d="M2260.483 2608.455l.466-1.857h-6.079l-.466 1.857h1.991l-.978 3.905h2.1l.978-3.905z" class="cls-5" data-name="Path 414" transform="translate(-2235.071 -2589.31)"/>
                    <path id="Path_415" d="M2254.792 2606.6h-3.032l-1.931 4.271v-4.271h-2.939l-1.838 7.334h2.02l1.2-4.734v4.734h1.56l2.3-4.734-1.1 4.734h1.931z" class="cls-4" data-name="Path 415" transform="translate(-2235.518 -2589.31)"/>
                    <path id="Path_416" d="M2267.207 2606.6h-1.928l-1.01 3.9-.92-3.9h-2.115l-1.837 7.334h1.93l1.01-3.992 1.011 3.992h2.022z" class="cls-4" data-name="Path 416" transform="translate(-2234.833 -2589.31)"/>
                    <path id="Path_417" d="M2255.258 2612.6l-.263 1.048h2.1l.262-1.048z" class="cls-7" data-name="Path 417" transform="translate(-2235.043 -2589.023)"/>
                </g>
            </g>
        </g>
        <ellipse id="Ellipse_69" cx="31.149" cy="3.035" class="cls-8" data-name="Ellipse 69" rx="31.149" ry="3.035" transform="translate(650.992 1462.991)"/>
    </g>
</svg>
