<svg xmlns="http://www.w3.org/2000/svg" width="117.376" height="90.871" viewBox="0 0 117.376 90.871">
    <defs>
        <style>
            .cls-1{fill:#395a72}.cls-2{fill:#669cc3}.cls-3{fill:#ec2127}.cls-4{fill:#e6e6e6}
        </style>
    </defs>
    <g id="Group_992" data-name="Group 992" transform="translate(-622.993 -3772.191)">
        <g id="Group_452" data-name="Group 452" transform="translate(-353.067 3548.221)">
            <g id="Group_451" data-name="Group 451" transform="translate(980.217 263.488)">
                <g id="Group_450" data-name="Group 450">
                    <path id="Path_620" d="M1076.067 300.908l-.028-.007-45.872-11.112a7.09 7.09 0 0 0-3.367 13.774l.028.007 13.085 3.17-25.338 8.348-24.187-7.788a5.681 5.681 0 0 0-3.488 10.81l27.711 8.926 40.5-13.343a5.657 5.657 0 0 0 3.119-2.517l14.466 3.506a7.09 7.09 0 0 0 3.367-13.774z" class="cls-1" data-name="Path 620" transform="translate(-982.964 -289.588)"/>
                    <path id="Path_621" d="M1019.758 337.553a6.058 6.058 0 0 0 3.015-.025l58.457-15.487a6.087 6.087 0 1 0-3.117-11.767l-56.155 14.878-19.3-10.219a6.087 6.087 0 0 0-5.694 10.76l21.407 11.33a5.977 5.977 0 0 0 1.387.53z" class="cls-2" data-name="Path 621" transform="translate(-987.242 -297.735)"/>
                    <path id="Path_622" d="M1105.762 306.921H1084.8a9.759 9.759 0 0 0-2.649.4c-.182.045-.363.1-.544.164l-50.923 18.3L1015 314.133a4.95 4.95 0 1 0-5.9 7.948l18.479 13.72a5.287 5.287 0 0 0 1.085.6 5.447 5.447 0 0 0 .675.277l.029.011a5.342 5.342 0 0 0 2.249.242h.025a5.51 5.51 0 0 0 .85-.158l54.333-10.124a5.331 5.331 0 0 0 .731-.191h18.215c.029-.008-.009-19.537-.009-19.537z" class="cls-2" data-name="Path 622" transform="translate(-992.562 -296.48)"/>
                </g>
            </g>
            <path id="Path_623" d="M1026.392 223.97a19.809 19.809 0 0 0-15.24 7.131 19.853 19.853 0 0 0-35.093 12.722c0 17.263 35.093 38.8 35.093 38.8s35.093-19.684 35.093-38.8a19.853 19.853 0 0 0-19.853-19.853z" class="cls-3" data-name="Path 623"/>
        </g>
        <ellipse id="Ellipse_73" cx="40.649" cy="3.535" class="cls-4" data-name="Ellipse 73" rx="40.649" ry="3.535" transform="translate(640.992 3855.991)"/>
    </g>
</svg>
