<svg xmlns="http://www.w3.org/2000/svg" width="194.051" height="70.653" viewBox="0 0 194.051 70.653">
    <defs>
        <style>
            .cls-1{fill:#8f3946}.cls-2{fill:#e8c3ab}.cls-3{fill:#fff}.cls-4{fill:#ffcc06}.cls-5{fill:#5fb978}.cls-6{fill:#669cc3}.cls-7{fill:#395a72}.cls-8{fill:#ab6b74}.cls-9{fill:#c02038}
        </style>
    </defs>
    <g id="Group_989" data-name="Group 989" transform="translate(-584.992 -2172.35)">
        <g id="Group_445" data-name="Group 445" transform="translate(506.092 1681.297)">
            <path id="Path_593" d="M263.972 543.645s21.926-4.047 23.95-8.771-10.457-10.794-10.457-10.794-10.12-.675-11.132 1.012-2.362 18.553-2.362 18.553z" class="cls-1" data-name="Path 593" transform="translate(-51.499 -9.153)"/>
            <path id="Path_594" d="M153.375 528.76s-21.926 4.047-23.951 8.77 10.457 10.794 10.457 10.794 10.12.675 11.132-1.012 2.362-18.553 2.362-18.553z" class="cls-2" data-name="Path 594" transform="translate(-13.997 -10.492)"/>
            <path id="Path_595" d="M206.91 506.193l-77.71 4.523 2.151 36.946 77.706-4.524-2.151-36.946z" class="cls-3" data-name="Path 595" transform="translate(-13.997 -4.213)"/>
            <path id="Path_596" d="M204.886 532.43h-.1a7.4 7.4 0 0 0-6.96 7.819c0 .047.012.092.015.139l-54.418 3.168v-.156a7.4 7.4 0 0 0-7.819-6.959c-.056 0-.109.013-.165.018l-.8-13.73h.167a7.4 7.4 0 0 0 6.958-7.82c-.006-.093-.021-.182-.03-.273l54.432-3.169v.292a7.4 7.4 0 0 0 7.82 6.96c.032 0 .063-.009.095-.011l.8 13.723zm-8.3-23.578l-55.556 3.234-9.564.557.565 9.712.861 14.78.559 9.594 9.607-.56 55.457-3.228 9.543-.555-.559-9.6-.857-14.729-.569-9.755-9.487.553z" class="cls-4" data-name="Path 596" transform="translate(-14.627 -4.799)"/>
            <path id="Path_597" d="M211.607 525.617a13.388 13.388 0 1 1-14.144-12.588 13.388 13.388 0 0 1 14.144 12.588z" class="cls-5" data-name="Path 597" transform="translate(-29.483 -6.109)"/>
            <path id="Path_598" d="M200.416 538.059l-.142-2.445a10.374 10.374 0 0 1-4.439-.852l.6-3.056a9.083 9.083 0 0 0 4.338.884c1.467-.085 2.437-.711 2.377-1.741-.057-.977-.916-1.547-2.858-2.079-2.807-.766-4.761-1.943-4.907-4.44-.131-2.264 1.361-4.133 4.083-4.834l-.141-2.445 2.522-.147.132 2.266a9.3 9.3 0 0 1 3.781.631l-.577 2.953a8.535 8.535 0 0 0-3.757-.659c-1.672.1-2.17.849-2.129 1.57.05.849.982 1.336 3.218 2.033 3.125.9 4.443 2.245 4.578 4.562.133 2.291-1.374 4.341-4.3 5.028l.153 2.624-2.522.147z" class="cls-3" data-name="Path 598" transform="translate(-32.41 -7.193)"/>
            <path id="Path_599" d="M233.188 512.245l-86.673-7.013-3.334 41.209 86.673 7.013 3.334-41.209z" class="cls-3" data-name="Path 599" transform="translate(-17.887 -3.945)"/>
            <path id="Path_600" d="M227 540.883c-.035 0-.07-.011-.106-.014a8.269 8.269 0 0 0-8.908 7.575c0 .051 0 .1-.005.155l-60.7-4.911c.006-.058.018-.114.023-.173a8.267 8.267 0 0 0-7.575-8.908c-.063-.005-.123 0-.185-.006l1.239-15.313c.061 0 .121.019.183.024a8.27 8.27 0 0 0 8.909-7.575c.008-.1.005-.2.009-.307l60.712 4.913c-.012.108-.033.214-.042.323a8.269 8.269 0 0 0 7.575 8.909h.106L227 540.883zm-5.537-27.37L159.5 508.5l-10.669-.863-.876 10.833-1.334 16.486-.865 10.7 10.716.867 61.856 5 10.644.861.867-10.71 1.329-16.43.88-10.879-10.581-.856z" class="cls-4" data-name="Path 600" transform="translate(-18.603 -4.614)"/>
            <path id="Path_601" d="M93.525 543.4c11.668-3.751 12.918-5.626 22.292-5.626s22.293 5.834 29.377 7.084 16.458-.624 18.543-1.25 11.458.834 10.625 7.709c-.51 4.2-8.407 5.835-16.185 6.66 0 0-9.65.424-12.358 1.465a91.9 91.9 0 0 1-16.043 3.75s11.875-1.042 16.043-2.5c3.116-1.091 7.746-1.831 11.451-.917-3.048 5.316-10.466 13.632-13.743 14.667-3.958 1.251-26.459-2.292-36.043-3.334-5.012-.544-17.659.165-28.584.964V545.36a54.494 54.494 0 0 0 14.625-1.96z" class="cls-6" data-name="Path 601" transform="translate(0 -13.001)"/>
            <path id="Path_602" d="M165.435 568.482c-4.167 1.458-16.043 2.5-16.043 2.5a91.9 91.9 0 0 0 16.043-3.75c2.709-1.042 12.358-1.465 12.358-1.465a16.443 16.443 0 0 1-.907 1.8c-3.705-.914-8.335-.174-11.451.917z" class="cls-7" data-name="Path 602" transform="translate(-19.615 -20.79)"/>
            <path id="Path_603" d="M296.315 522.36c-11.667 3.75-12.917 5.626-22.293 5.626s-22.292-5.834-29.375-7.084-16.46.624-18.543 1.25-11.459-.834-10.625-7.709c.509-4.2 8.406-5.835 16.184-6.66 0 0 9.65-.424 12.358-1.466a91.978 91.978 0 0 1 16.043-3.749s-10.516 2.821-14.683 4.279c-3.116 1.091-9.1.052-12.81-.863 3.047-5.315 10.465-13.631 13.743-14.666 3.959-1.251 26.46 2.292 36.043 3.333 5.012.545 17.659-.164 28.584-.964V520.4a54.494 54.494 0 0 0-14.626 1.96z" class="cls-8" data-name="Path 603" transform="translate(-37.991)"/>
            <path id="Path_604" d="M250.18 509.348c4.167-1.459 16.043-2.5 16.043-2.5a91.97 91.97 0 0 0-16.043 3.75c-2.708 1.041-12.358 1.465-12.358 1.465a16.456 16.456 0 0 1 .908-1.8c3.705.915 8.335.174 11.45-.917z" class="cls-1" data-name="Path 604" transform="translate(-44.222 -4.395)"/>
        </g>
        <path id="Path_611" d="M559.844 244.563a35.281 35.281 0 1 0 35.281 35.281 35.281 35.281 0 0 0-35.281-35.281zm29.169 35.281a29.03 29.03 0 0 1-6.506 18.34l-41-41a29.152 29.152 0 0 1 47.509 22.663zm-58.337 0a29.028 29.028 0 0 1 6.506-18.34l41 41a29.152 29.152 0 0 1-47.509-22.663z" class="cls-9" data-name="Path 611" transform="translate(122.429 1927.787)"/>
    </g>
</svg>
