<svg xmlns="http://www.w3.org/2000/svg" width="370.721" height="248.654" viewBox="0 0 370.721 248.654">
    <defs>
        <style>
            .cls-1{fill:#99bcd6}.cls-2{fill:#fff}.cls-3{fill:#cc4e60}.cls-4{fill:#005a9b}.cls-5{fill:#337baf}.cls-6{fill:#ffcc06}.cls-7{fill:#d8e0e6}
        </style>
    </defs>
    <g id="Compliance_graphic" data-name="Compliance graphic" transform="translate(-2348.279 -4538.628)">
        <g id="Group_270" data-name="Group 270" transform="translate(2348.279 4538.628)">
            <path id="Path_418" d="M2547.84 4538.627h-199.562v227.123h140.561l59-55.557z" class="cls-1" data-name="Path 418" transform="translate(-2348.278 -4538.627)"/>
            <path id="Path_419" d="M2532.093 4548.351h-175.269v199.473h123.45l51.819-48.792z" class="cls-2" data-name="Path 419" transform="translate(-2344.676 -4534.529)"/>
            <g id="Group_269" data-name="Group 269" transform="translate(21.711 38.764)">
                <g id="Group_268" data-name="Group 268">
                    <g id="Group_264" data-name="Group 264" transform="translate(0 73.33)">
                        <path id="Rectangle_289" d="M0 0h150.489v23.891H0z" class="cls-3" data-name="Rectangle 289"/>
                    </g>
                    <g id="Group_265" data-name="Group 265">
                        <path id="Rectangle_290" d="M0 0h150.489v23.886H0z" class="cls-3" data-name="Rectangle 290"/>
                    </g>
                    <g id="Group_266" data-name="Group 266" transform="translate(0 36.668)">
                        <path id="Rectangle_291" d="M0 0h150.489v23.885H0z" class="cls-3" data-name="Rectangle 291"/>
                    </g>
                    <g id="Group_267" data-name="Group 267" transform="translate(0 109.998)">
                        <path id="Rectangle_292" d="M0 0h150.489v23.891H0z" class="cls-3" data-name="Rectangle 292"/>
                    </g>
                </g>
            </g>
            <path id="Path_420" d="M2506.163 4659.323l-59 55.557v-55.557z" class="cls-1" data-name="Path 420" transform="translate(-2306.601 -4487.757)"/>
        </g>
        <g id="Group_271" data-name="Group 271" transform="translate(2469.76 4541.517)">
            <path id="Path_421" d="M2544.415 4590.891l-58.548 57.766-38.9-39.423 58.548-57.766 38.9 39.423z" class="cls-4" data-name="Path 421" transform="translate(-2428.163 -4536.104)"/>
            <path id="Path_422" d="M2495.771 4644.4l-3.164 3.112c-4.738 4.659-14.2 2.72-21.135-4.333l-29.631-30.129c-6.935-7.051-8.716-16.544-3.979-21.2l3.164-3.112c1.72-1.691 5.156-.987 7.675 1.574l45.625 46.393c2.518 2.56 3.164 6.008 1.444 7.7z" class="cls-5" data-name="Path 422" transform="translate(-2433.12 -4520.786)"/>
            <path id="Path_423" d="M2488.286 4647.331c-4.985 1.09-11.607-1.321-16.809-6.61l-29.631-30.129c-5.2-5.289-7.5-11.951-6.331-16.918l52.77 53.658z" class="cls-4" data-name="Path 423" transform="translate(-2433.117 -4518.316)"/>
            <path id="Path_424" d="M2539 4602.3l3.178-3.146c4.76-4.711 2.934-14.272-4.078-21.357l-29.959-30.265c-7.012-7.083-16.554-9.008-21.313-4.3l-3.178 3.145c-1.729 1.711-1.065 5.183 1.481 7.755l46.13 46.606c2.546 2.57 6.011 3.269 7.74 1.559z" class="cls-5" data-name="Path 424" transform="translate(-2413.109 -4540.66)"/>
            <path id="Path_425" d="M2542.025 4594.835c1.166-5.009-1.177-11.714-6.435-17.028l-29.96-30.266c-5.258-5.313-11.941-7.725-16.961-6.609l53.356 53.9z" class="cls-4" data-name="Path 425" transform="translate(-2410.589 -4540.657)"/>
            <path id="Path_426" d="M2541.781 4601.741l-5.98 4.417a171.806 171.806 0 0 0-34.959 34.581l-4.143 5.481-48.3-48.952 8.625-5.56a105.191 105.191 0 0 0 30.44-29.926l6.017-8.994 48.3 48.951z" class="cls-6" data-name="Path 426" transform="translate(-2427.561 -4535.547)"/>
            <path id="Path_427" d="M2528.844 4604.157l-.037.037a2.544 2.544 0 0 1-3.6-.026l-46.569-47.2a2.545 2.545 0 0 1 .024-3.6l.038-.037a2.544 2.544 0 0 1 3.6.023l46.569 47.2a2.542 2.542 0 0 1-.024 3.6z" class="cls-5" data-name="Path 427" transform="translate(-2415.124 -4535.627)"/>
            <path id="Path_428" d="M2497.422 4635.16l-.037.037a2.544 2.544 0 0 1-3.6-.024l-46.569-47.2a2.545 2.545 0 0 1 .024-3.6l.037-.037a2.545 2.545 0 0 1 3.6.024l46.569 47.2a2.543 2.543 0 0 1-.024 3.6z" class="cls-5" data-name="Path 428" transform="translate(-2428.368 -4522.56)"/>
            <path id="Path_429" d="M2645.831 4734.638l-129.939-122.732-6.964 9.188 121.36 129.117c7.833 8.212 12.618 7.24 17 2.906 4.4-4.355 6.74-10.557-1.456-18.479z" class="cls-4" data-name="Path 429" transform="translate(-2402.05 -4510.632)"/>
            <path id="Path_430" d="M2528.429 4613.368c-1.032-1.042-3.484-.336-5.838 1.548-2.317-8.393-7.291-16.711-15.739-18.744l-2.111 1.859-10.357 10.083-1.9 2.044c1.987 8.511 10.348 13.584 18.788 15.933-1.981 2.371-2.749 4.881-1.7 5.94l.045.044c1.2 1.213 4.327.064 6.983-2.566l9.236-9.141c2.657-2.629 3.837-5.744 2.637-6.957l-.044-.044z" class="cls-4" data-name="Path 430" transform="translate(-2408.979 -4517.262)"/>
            <path id="Path_431" d="M2520.854 4714.715h-80.881v-6.021a8.154 8.154 0 0 1 8.155-8.153h64.57a8.155 8.155 0 0 1 8.155 8.153v6.021" class="cls-5" data-name="Path 431" transform="translate(-2431.112 -4473.274)"/>
            <path id="Path_432" d="M2531.876 4716.645h-96.251a1.886 1.886 0 0 1-1.885-1.887v-6.647a1.885 1.885 0 0 1 1.885-1.885h96.251a1.885 1.885 0 0 1 1.885 1.885v6.647a1.886 1.886 0 0 1-1.885 1.887" class="cls-4" data-name="Path 432" transform="translate(-2433.74 -4470.879)"/>
            <path id="Path_433" d="M2439.974 4706.74v-1.04a1.306 1.306 0 0 1 .2-.7 8.229 8.229 0 0 0-.2 1.735" class="cls-7" data-name="Path 433" transform="translate(-2431.112 -4471.393)"/>
        </g>
    </g>
</svg>
