<svg xmlns="http://www.w3.org/2000/svg" width="164.823" height="78.113" viewBox="0 0 164.823 78.113">
    <defs>
        <style>
            .cls-1{fill:#337baf}.cls-2{fill:#ffcc06}.cls-3{fill:#cd4d60}
        </style>
    </defs>
    <g id="Group_448" data-name="Group 448" transform="translate(6675 -6856)">
        <path id="Union_1" d="M51.686 27.267H0V6.918h51.686V0l23.6 17.093-23.6 17.093z" class="cls-1" data-name="Union 1" transform="translate(-6675 6877.977)"/>
        <path id="Union_2" d="M51.686 6.919H0v20.349h51.686v6.918l23.6-17.093L51.686 0z" class="cls-2" data-name="Union 2" transform="rotate(180 -3255.088 3456.081)"/>
        <g id="Group_447" data-name="Group 447" transform="translate(-6614.768 6856)">
            <path id="Path_605" d="M633.91 154.6a1.709 1.709 0 0 0-1.708 1.709v11.227a1.709 1.709 0 0 0 3.417 0v-11.225a1.709 1.709 0 0 0-1.709-1.711z" class="cls-3" data-name="Path 605" transform="translate(-612.046 -154.602)"/>
            <path id="Path_606" d="M698.819 196.028a1.709 1.709 0 0 0-2.416 0l-6.731 6.731-.1.1-1.11 1.11a1.709 1.709 0 0 0 2.416 2.416l1.11-1.11.1-.1 6.731-6.731a1.709 1.709 0 0 0 0-2.416z" class="cls-3" data-name="Path 606" transform="translate(-655.591 -186.561)"/>
            <path id="Path_607" d="M551.061 206.383a1.709 1.709 0 0 0 0-2.416l-6.731-6.731-.1-.1-1.11-1.11a1.708 1.708 0 1 0-2.416 2.416l1.11 1.11.1.1 6.731 6.731a1.709 1.709 0 0 0 2.416 0z" class="cls-3" data-name="Path 607" transform="translate(-540.205 -186.561)"/>
        </g>
        <g id="Group_446" data-name="Group 446" transform="translate(-6614.768 6913.79)">
            <path id="Path_608" d="M633.91 169.246a1.709 1.709 0 0 1-1.708-1.709v-11.226a1.708 1.708 0 1 1 3.417 0v11.227a1.709 1.709 0 0 1-1.709 1.708z" class="cls-3" data-name="Path 608" transform="translate(-612.046 -148.924)"/>
            <path id="Path_609" d="M698.819 206.383a1.709 1.709 0 0 1-2.416 0l-6.731-6.731-.1-.1-1.11-1.11a1.709 1.709 0 0 1 2.416-2.416l1.11 1.11.1.1 6.731 6.731a1.709 1.709 0 0 1 0 2.416z" class="cls-3" data-name="Path 609" transform="translate(-655.591 -195.527)"/>
            <path id="Path_610" d="M551.061 196.028a1.708 1.708 0 0 1 0 2.416l-6.731 6.731-.1.1-1.11 1.11a1.708 1.708 0 0 1-2.416-2.416l1.11-1.11.1-.1 6.731-6.731a1.709 1.709 0 0 1 2.416 0z" class="cls-3" data-name="Path 610" transform="translate(-540.205 -195.527)"/>
        </g>
    </g>
</svg>
