<svg xmlns="http://www.w3.org/2000/svg" width="411.45" height="376.309" viewBox="0 0 411.45 376.309">
    <defs>
        <style>
            .cls-1{fill:#c02038}.cls-2{fill:#1a4675}.cls-3{fill:#9a8479}.cls-12,.cls-14,.cls-17,.cls-21,.cls-22,.cls-3{opacity:.5}.cls-4{fill:#5d5d5d}.cls-5{fill:#cb6657}.cls-6{fill:#ffcc06}.cls-7{fill:#b29216}.cls-8{fill:#fff}.cls-9{fill:#005a9b}.cls-10{fill:#ffd9cc}.cls-11{fill:#333}.cls-12{fill:#ffcf62}.cls-13{fill:#f2f2f2}.cls-14{fill:#ccc}.cls-15{fill:#474747}.cls-16{fill:#005a9a}.cls-17{fill:#cfb98f}.cls-18{fill:#6f819e}.cls-19{fill:#cbcbca}.cls-20{fill:#3a3a3a}.cls-21{fill:#1c75bb}.cls-22{fill:#603913}
        </style>
    </defs>
    <g id="Group_152" data-name="Group 152" transform="translate(-5938.215 -2851.826)">
        <path id="Path_188" d="M6343.319 3075.586l-338.3 152.549h-60.729l399.028-179.463z" class="cls-1" data-name="Path 188"/>
        <path id="Path_189" d="M6342.475 3106.186v121.949H6286.8V3131.8z" class="cls-1" data-name="Path 189"/>
        <path id="Path_190" d="M6261.242 3141.55v86.584h-55.674v-60.966z" class="cls-1" data-name="Path 190"/>
        <path id="Path_191" d="M6098.776 3207.64v20.495H6043.1z" class="cls-1" data-name="Path 191"/>
        <g id="Group_148" data-name="Group 148">
            <path id="Path_192" d="M6335.786 3053.272s.789-27.393-.153-40.254a12.582 12.582 0 0 0-5.266-9.4 114.06 114.06 0 0 0-28.227-14.411s-27.664 4.9-33.1 17.829c-.367 8.56-3.843 39.4 9.6 70.435-2.579 3.352-9.038 7.85-10.313 11.621l19.137-6.946s-4.9-31.813-2.827-39.238c1.083-6.83 7.086-32.027 7.086-32.027l27.132 7.077 10.934 36.072.639 6.419 19.236-1.725c-5.681-3.38-13.878-5.452-13.878-5.452z" class="cls-2" data-name="Path 192"/>
            <path id="Path_193" d="M6329.79 3054.027l.264 2.648a13.972 13.972 0 0 0 5.732-3.4l-8.9-20.011-5.015-16.955-30.151-5.428 27.132 7.077z" class="cls-3" data-name="Path 193"/>
            <path id="Path_194" d="M6335.786 3053.272c-4.52 1.95-6 .755-6 .755l.639 6.419 19.236-1.725c-5.678-3.377-13.875-5.449-13.875-5.449z" class="cls-4" data-name="Path 194"/>
            <path id="Path_195" d="M6223.1 2997.345a31.319 31.319 0 0 1-6.644 1.12 16.662 16.662 0 0 0-6.747 2.228l5.914.575-9.225 6.93s5.047 1.43 8.328.331 10.518-6.622 10.518-6.622a5.625 5.625 0 0 0-2.144-4.562z" class="cls-5" data-name="Path 195"/>
            <path id="Path_196" d="M6321.352 2949.029a14.967 14.967 0 0 1 8.469-7.8 21.357 21.357 0 0 1-2.062 4.277l2.062-1.174v8.613l-5.568 1.249s-3.453-2.025-2.901-5.165z" class="cls-5" data-name="Path 196"/>
            <path id="Path_197" d="M6290.7 2876.9s-22.874 20.331-58.631 29.971c16.947 3.68 38.737 7.957 62.016 2.184z" class="cls-6" data-name="Path 197"/>
            <path id="Path_198" d="M6288.162 2893.552l-6.618 7s2.858 6.634 12.542 8.5l-1.738-16.5z" class="cls-7" data-name="Path 198"/>
            <path id="Path_199" d="M6332.568 2854.694s-34.436 6.035-53.127 14.788c-3.047 2.421 2.1 31.074 2.1 31.074s24.124-8.308 49.714-8.094z" class="cls-8" data-name="Path 199"/>
            <path id="Path_200" d="M6223.1 2997.345s-.206 3.5 2.376 5.444c0 0 24.761-12.53 34.747-24.738 1.844 3.911 7.9 21.809 8.815 28.982 8.632.356 27.463-7.844 33.1-17.829 0 0-11.415-10.392-15.046-20.865 0 0 21.482.186 37.159-14.147 0 0 .682-2.485-2.9-5.163l-15.275 8.088s-18.669-3.791-26.756-4.667c-5.408.076-16.058 1.532-23.777 9.043-3.2 3.993-10.386 12.456-16.4 22.27-3.222 2.884-16.043 13.582-16.043 13.582z" class="cls-8" data-name="Path 200"/>
            <path id="Path_201" d="M6263.115 2949.712l.7 7.741a4 4 0 0 0 5.23 1.39c3.431-1.575 3.05-3.814 3.05-3.814l-4.308-7.508s-3.622.654-4.672 2.191z" class="cls-5" data-name="Path 201"/>
            <g id="Group_147" data-name="Group 147">
                <path id="Path_202" d="M6324.726 3070.867a1.647 1.647 0 0 1-.2-.011 1.762 1.762 0 0 1-1.556-1.945c4.245-38.207 7.674-213.59 7.708-215.358a1.823 1.823 0 0 1 1.8-1.727 1.763 1.763 0 0 1 1.727 1.8c-.034 1.769-3.467 177.313-7.73 215.678a1.762 1.762 0 0 1-1.749 1.563z" class="cls-4" data-name="Path 202"/>
            </g>
            <path id="Path_203" d="M6331.769 2952.943s3.141-.12 2.865-6.9c-.34-1.774-.97-2.619-2.648-2.233-1.354.386-2.163 5.221-2.163 5.221s-.138 1.713 1.946 3.912z" class="cls-5" data-name="Path 203"/>
            <path id="Path_204" d="M6271.169 2953.412s2.561.7 3.16 1.748-1.58 5.44-1.58 5.44l-3.7-1.75s2.051-3.193 2.12-5.438z" class="cls-9" data-name="Path 204"/>
            <path id="Path_205" d="M6263.68 2955.946s-2.077 1.809-1.381 2.857a9.683 9.683 0 0 0 5.313 3.947l1.436-3.9c-1.948-.15-5.368-2.904-5.368-2.904z" class="cls-9" data-name="Path 205"/>
            <path id="Path_206" d="M6268.917 2949.488l-.653-1.137a10.281 10.281 0 0 0-.794-.763c-.882.192-3.486.852-4.355 2.124l.47 5.189c2.733-.754 4.922-4.64 5.332-5.413z" class="cls-10" data-name="Path 206"/>
            <path id="Path_207" d="M6253.278 2937.878s-3.418 2.6 3.613 13.731c1.4 2.215 5.932 1.575 12.1-2.266 1.718-1.826-.475-9.592-1.717-10.52s-12.026-2.129-13.996-.945z" class="cls-5" data-name="Path 207"/>
            <path id="Path_208" d="M6291.724 3010.878l-12.15 34.062 3.6 29.172-4.537 3.356s4.931 1.7 8.309 1.153c-1.2-8.478-3.962-29.809-2.312-35.716 1.087-6.83 7.09-32.027 7.09-32.027z" class="cls-3" data-name="Path 208"/>
            <path id="Path_209" d="M6286.585 3075.98a9.031 9.031 0 0 1-7.944 1.488c-2.579 3.352-9.038 7.85-10.313 11.621l19.137-6.946s-.378-2.459-.88-6.163z" class="cls-4" data-name="Path 209"/>
            <path id="Path_210" d="M6268.547 2943.322l-.466-3.272c-9.31 4.379-14.8-2.172-14.8-2.172-1.969 3.516 1.083 9.229 1.083 9.229s-12.842-12.284 3.331-16.642c11.751-3.167 12.08 6.093 12.08 6.093.815 5.818 4.192 7.177 4.192 7.177 7.5 2.152 10.305 3.8 9.491 6.571-.932 3.175-9.361 6.068-12.375 4.7-1.869-.849-2.858-7.7-2.858-7.7s.65-3.117.322-3.984z" class="cls-11" data-name="Path 210"/>
            <path id="Path_211" d="M6281.1 2962.476s-13.094 1.638-16.463 2.979-7.218 13.442-5.114 18.234 4.7 3.381 8.652 6.674 7.776 12.782 7.776 12.782 22.549-14.313 15.778-23.4a118.654 118.654 0 0 1-10.629-17.269z" class="cls-8" data-name="Path 211"/>
            <path id="Path_212" d="M6263.875 2987.908s12.742-2.187 14.766-4.824c0 0-11.234 9.191-10.313 11.082 1.949 4 9.24 11.486 9.24 11.486a26.824 26.824 0 0 1-8.525 1.381c-1.143-7.415-5.168-19.125-5.168-19.125z" class="cls-12" data-name="Path 212"/>
        </g>
        <path id="Path_213" d="M6180.009 3174.088v54.047h-55.674v-28.428z" class="cls-1" data-name="Path 213"/>
        <g id="Group_149" data-name="Group 149">
            <path id="Path_214" d="M6080.712 3166.531s1.758-28.231 2.083-33.8c-6.793-15.946-24.176-26.072-24.176-26.072s-4.882-4.02-8.448-2.272a7.025 7.025 0 0 0-2.778 2.7c-2.405-4.574-6.814-7.409-14.832-4.409 0 0-8.857 14.887 3.643 45.638 1.862 6.1 1.543 43.7 1.543 43.7l16.169-5.654-10.08-2.116s5.377-29.275 6.6-36.205-.437-22.29-.437-22.29.054-.531.1-1.422c7.109 8.282 21.369 14.175 21.369 14.175l4.284 35.213 14.894-5.142z" class="cls-13" data-name="Path 214"/>
            <path id="Path_215" d="M6077.044 3170.123l-1.944-34.081-25-11.714c7.109 8.282 21.369 14.175 21.369 14.175l3.907 32.116a16.435 16.435 0 0 0 1.668-.496z" class="cls-14" data-name="Path 215"/>
            <path id="Path_216" d="M6080.712 3166.531a14.936 14.936 0 0 1-5.612 1.851l.649 5.334 14.894-5.142z" class="cls-15" data-name="Path 216"/>
            <path id="Path_217" d="M6047.415 3150.125l-5.51 35.512s5.766.235 7.5-.224l-5.564-1.168s5.377-29.275 6.6-36.205-.437-22.29-.437-22.29.054-.531.1-1.422z" class="cls-14" data-name="Path 217"/>
            <path id="Path_218" d="M6043.836 3184.245s-3.3 2.206-6.068 2c0 3.5-.021 5.773-.021 5.773l16.169-5.654z" class="cls-15" data-name="Path 218"/>
            <path id="Path_219" d="M6034.044 3128.856a19.223 19.223 0 0 1 3.344-14.589l4.579-6.348a10.982 10.982 0 0 0-1.151-6.242 14.647 14.647 0 0 0-8.255 1s-8.857 14.887 3.643 45.638c.444-3.476-.967-12.682-2.16-19.459z" class="cls-14" data-name="Path 219"/>
            <path id="Path_220" d="M6062.077 3071.536a118.4 118.4 0 0 1 15.932 11.605c7.633 6.715 23.684 10.364 23.684 10.364s.7 5.291-.9 5.407-24.123-3.931-24.123-3.931-13.226-5.246-16.156-9.814c-1.673-2.767-2.214-11.553 1.563-13.631z" class="cls-16" data-name="Path 220"/>
            <path id="Path_221" d="M6101.693 3093.5l7.5-4.074-1.913 4.255 10.329 2.223s-4.169 3.9-6.261 3.917-10.559-.914-10.559-.914-.922-4.407.904-5.407z" class="cls-5" data-name="Path 221"/>
            <path id="Path_222" d="M6078.621 3093.189a46.682 46.682 0 0 1-6.664-3.115 11.243 11.243 0 0 1-5.574-9.5 45.163 45.163 0 0 0-.8-6.822c-2.131-1.4-3.509-2.219-3.509-2.219-3.773 2.078-3.236 10.86-1.565 13.631 2.93 4.568 16.156 9.814 16.156 9.814s7.367 1.324 13.975 2.436c0 .002-7.227-2.482-12.019-4.225z" class="cls-17" data-name="Path 222"/>
            <path id="Path_223" d="M6044.132 3068.857s14.224-.711 17.945 2.661 1.926 16.09-2.771 22.049c-2.237 3.2-.687 13.171-.687 13.171s-16.022 6.02-26.058-3.815c.739-3.453 6.502-28.662 11.571-34.066z" class="cls-16" data-name="Path 223"/>
            <path id="Path_224" d="M6051.812 3065.164l-2.045 7.514a4.008 4.008 0 0 0 4.425 3.131c3.772-.279 4.2-2.515 4.2-2.515l-1.423-8.555s-3.634-.652-5.157.425z" class="cls-5" data-name="Path 224"/>
            <path id="Path_225" d="M6050.571 3069.724c4.807.5 6.847-2.268 6.847-2.268l-.452-2.717s-3.631-.652-5.154.425z" class="cls-10" data-name="Path 225"/>
            <path id="Path_226" d="M6049.5 3053.367s-4.787 7.1-3.916 9.582 4.13 4.555 11.411 4.684c2.44-.6 4.49-8.243 4.284-9.783-1.352-10.08-9.279-6.437-11.779-4.483z" class="cls-5" data-name="Path 226"/>
            <path id="Path_227" d="M6041.967 3107.919c-4.512-2.932-5.561-8-4.452-13.122 1.162-5.364 6.362-12.868 6.362-12.868-1.915-2.976-5.424-.835-5.51-.613-2.958 8.962-5.349 19.466-5.806 21.607a19.23 19.23 0 0 0 9.406 4.996z" class="cls-17" data-name="Path 227"/>
            <path id="Path_228" d="M6006.514 3107.952l1.049 8.784-3.309-3.4-7.4 7.623s-.6-5.3-.594-6.724 4.852-7.556 6.458-8.159 3.539-.282 3.796 1.876z" class="cls-5" data-name="Path 228"/>
            <path id="Path_229" d="M6044.132 3068.794s-18.58 4.4-24.423 10.788c-5.2 5.156-16.989 26.494-16.989 26.494s2.027 1.883 3.794 1.876c1.277-1.462 16.052-18.521 16.052-18.521s14.288-3.258 19.443-6.128c5.891-3.282 6.663-12.13 2.123-14.509z" class="cls-16" data-name="Path 229"/>
            <path id="Path_230" d="M6046.649 3077.278c-3.956 4.04-23.851 9.032-23.851 9.032l-5.388 9.074 5.156-5.953s14.288-3.258 19.443-6.128a9.938 9.938 0 0 0 4.64-6.025z" class="cls-17" data-name="Path 230"/>
        </g>
        <g id="Group_150" data-name="Group 150">
            <path id="Path_231" d="M6144.88 3043s-6.649 6.1-12.987 2.844-3.2-11.53-2.81-14.711-2.733-4.634-3.07-7.438 1.592-8.977 9.434-12.3c19.453-8.245 24.384 10.422 20.836 12.7-2.106 1.353-.668 3.145.421 4.675 2.743 3.854 3.124 8.437.151 12.262-3.005 3.862-7.834 4.206-11.975 1.968z" class="cls-2" data-name="Path 231"/>
            <path id="Path_232" d="M6154.782 3035.014s13.922.426 18.763-.316 18.378-9.212 20.284-10.669c1.881.106 3.606 4.2 3.606 4.2s-11.792 12.6-21.329 16.476-21.816 1.918-21.816 1.918-6.018-8.554.492-11.609z" class="cls-8" data-name="Path 232"/>
            <path id="Path_233" d="M6193.829 3024.029l3.553-7.163.5 3.981 9.914-8.535s-.618 6.826-1.767 8.535-8.592 7.387-8.592 7.387-4.462-2.485-3.608-4.205z" class="cls-18" data-name="Path 233"/>
            <path id="Path_234" d="M6165.225 3043.761c-3.725-.678-7.092-5.9-8.653-8.7-1.095-.024-1.79-.045-1.79-.045-6.51 3.055-.492 11.614-.492 11.614s12.28 1.956 21.816-1.918a43.13 43.13 0 0 0 9.286-5.626c-3.72 2.966-15.063 5.603-20.167 4.675z" class="cls-14" data-name="Path 234"/>
            <path id="Path_235" d="M6155.148 3072.5s26.935 6.982 28.8 20.647c-.009 6.772-8.688 37.066-8.688 37.066l10.526 3.434-17.653 2.569s.724-23.6 3.728-36.521c-3.23-3.68-22.83-10.505-22.83-10.505l-7.893 26.428-3.384 30.582 1.444 6.146-15.19 4.679 7.853-9.633-4.252-29.446a25.52 25.52 0 0 1-.178-5.767c.666-8.11 2.8-30.671 6.56-39.189 2.487-4.384 21.157-.49 21.157-.49z" class="cls-18" data-name="Path 235"/>
            <path id="Path_236" d="M6130.31 3040.721a31.884 31.884 0 0 1 12.035-5.532 32.894 32.894 0 0 1 12.437-.175s6.127 10.224 2.568 15.885-3.3 8.74-3.055 13 .853 8.6.853 8.6-10.919 5.936-21.154.49c-.578-5.62-.503-17.782-3.684-32.268z" class="cls-8" data-name="Path 236"/>
            <path id="Path_237" d="M6145.346 3028.61l2.589 7.6a4.135 4.135 0 0 1-4.353 3.508c-3.9-.044-4.482-2.318-4.482-2.318l.913-8.9s3.696-.9 5.333.11z" class="cls-18" data-name="Path 237"/>
            <path id="Path_238" d="M6139.974 3028.891l-.592 5.765c3.528.017 6.479-4.162 6.479-4.162l-.809-1.225z" class="cls-19" data-name="Path 238"/>
            <path id="Path_239" d="M6146.968 3016.317s5.384 7.006 4.648 9.612-3.959 4.954-11.445 5.556c-2.55-.462-5.152-8.2-5.039-9.8.741-10.458 9.139-7.218 11.836-5.368z" class="cls-18" data-name="Path 239"/>
            <path id="Path_240" d="M6139.972 3024.123c.04-1.245-2.446-2.563-1.271-3.91 5.534.833 10.5-3.482 10.5-3.482-.05-2.912-6.107-7.088-12.484-3.736s-4.168 14.236-1.377 16.376 4.862.565 4.862.565c-1.414-.093-2.791-4.79-2.984-6.042-.153-1.023 2.432.176 2.754.229z" class="cls-2" data-name="Path 240"/>
            <path id="Path_241" d="M6135.852 3066.993c-.5-2.75 0-18 0-18-.531-.295-2.259-.06-3.976.248 1.606 10.643 1.658 19.275 2.118 23.75a20.029 20.029 0 0 0 9.759 2.289c-3.732-2.362-7.5-6.08-7.901-8.287z" class="cls-14" data-name="Path 241"/>
            <path id="Path_242" d="M6096.894 3071.285l-9.285-.981 3.364 2.758-8.8 5.839s5.06 1.132 8.336.049 8.3-3.29 8.3-3.29 2.879-2.853-1.915-4.375z" class="cls-18" data-name="Path 242"/>
            <path id="Path_243" d="M6130.31 3040.721s6.479 4.182 5.778 11.362c-.679 3.339-12.375 16.63-37.86 23.593a28.587 28.587 0 0 1-1.72-4.475s15.677-6.77 19.816-11.606 9.564-16.525 13.986-18.874z" class="cls-8" data-name="Path 243"/>
            <path id="Path_244" d="M6115.413 3069.206c13.639-6.764 20.173-14.657 20.675-17.123a11.113 11.113 0 0 0-1.531-6.768c-.257 7.262-18.457 23.285-19.144 23.891z" class="cls-14" data-name="Path 244"/>
            <path id="Path_245" d="M6174.181 3113.631s-2.377-1.515-4.188-2.6c-.9 7.432-1.394 15.28-1.643 20.2.835.324 1.571.6 1.571.6z" class="cls-19" data-name="Path 245"/>
            <path id="Path_246" d="M6137.757 3146.2l2.4-21.687c-1.991 1.567-4.016 3.464-4.016 3.464v19.262l1.77-.384z" class="cls-19" data-name="Path 246"/>
            <path id="Path_247" d="M6139.2 3152.346l-1.444-6.146c-2.466 2.327-5.893 1.191-5.893 1.191l-7.853 9.633z" class="cls-20" data-name="Path 247"/>
            <path id="Path_248" d="M6179.669 3113.965c2.149-8.352 4.278-17.466 4.282-20.818-1.868-13.665-28.8-20.647-28.8-20.647s-18.67-3.894-21.154.489c-3.756 8.519-5.894 31.08-6.56 39.19a25.52 25.52 0 0 0 .178 5.767l1.491 10.325c4.369 2.661 10.733-.868 10.733-.868l1.305-11.786 7.893-26.427s19.6 6.825 22.83 10.505a118.638 118.638 0 0 0-2.067 13.028c4.268 3.283 9.867 1.243 9.869 1.242z" class="cls-2" data-name="Path 248"/>
            <path id="Path_249" d="M6171.864 3099.7a118.638 118.638 0 0 0-2.067 13.028 9.889 9.889 0 0 0 6.944 1.82c-1.438-1.422-4.09-4.011-3.759-8.187a43 43 0 0 1 1.712-9.247l-25.66-7.919s19.6 6.82 22.83 10.505z" class="cls-12" data-name="Path 249"/>
            <path id="Path_250" d="M6139.837 3127.4l1.3-11.786 7.893-26.427-10.705 25.4a32.37 32.37 0 0 0-.514 7.192c.038 3.353-3.071 6.1-4.993 7.476a16.184 16.184 0 0 0 7.019-1.855z" class="cls-12" data-name="Path 250"/>
            <path id="Path_251" d="M6175.263 3130.213s-3.748 1.617-6.868.156c-.188 3.551-.259 5.847-.259 5.847l17.653-2.569z" class="cls-20" data-name="Path 251"/>
        </g>
        <g id="Group_151" data-name="Group 151">
            <path id="Path_252" d="M5984.892 3135.441s24.053 14.953 27.371 21.37-5.386 41.414-5.386 41.414l9.966 3.571-16.866 3s-.5-26.689.867-36.353c-6.308-1.99-23.1-12.141-23.1-12.141l-3.66 30.495 4.265 32.715-12.261 8.347 5.346-10.941s-8.364-22.827-11.345-29.236-4.427-32.455-5.023-40.715 23.802-13.2 29.826-11.526z" class="cls-2" data-name="Path 252"/>
            <path id="Path_253" d="M6010.107 3199.383l-3.23-1.158a7.245 7.245 0 0 1-5.691-2.372l2.246-29.809-25.69-9.747s16.794 10.15 23.1 12.141c-1.145 8.123-.978 28.272-.9 34.49 3.375-.548 6.923-1.136 8.429-1.42 1.81-.339 2.286-1.321 1.736-2.125z" class="cls-21" data-name="Path 253"/>
            <path id="Path_254" d="M5971.025 3183.992l6.358 28.123-3.3-25.323 3.661-30.494z" class="cls-21" data-name="Path 254"/>
            <path id="Path_255" d="M5955.6 3144.585a4.369 4.369 0 0 0-.539 2.377c.514 7.12 1.66 27.448 3.876 37.03-2.283-17.484 9.207-40.421 9.207-40.421-2.537 1.015-8.087 1.094-12.544 1.014z" class="cls-21" data-name="Path 255"/>
            <path id="Path_256" d="M5970.795 3073.351c.032.988 1.513 26.756 1.513 26.756s5.943.99 7.228-2.558-4.569-25.774-4.569-25.774z" class="cls-18" data-name="Path 256"/>
            <path id="Path_257" d="M5975.857 3075.287c-.526-2.13-.89-3.512-.89-3.512l-4.172 1.576c.014.418.286 5.262.6 10.714l1.26-4.4z" class="cls-19" data-name="Path 257"/>
            <path id="Path_258" d="M5961.565 3077.405l27.525-25.571s5.955 5.669 6.09 9.968l-31.392 17.732s-1.643.966-2.223-2.129z" class="cls-6" data-name="Path 258"/>
            <path id="Path_259" d="M5989.09 3062.092c-2.276.247-3.384-2.34-4.862-1.108s-4.187 3.131-3.613 4.772c.537 1.532-14.188 10.6-18.335 13.421a1.207 1.207 0 0 0 1.508.357l31.392-17.732c-.135-4.3-6.09-9.968-6.09-9.968s2.571 8.624 0 10.258z" class="cls-22" data-name="Path 259"/>
            <path id="Path_260" d="M5955.547 3094.939l5.208 6.868a4.438 4.438 0 0 1-3.248 5.044c-3.988 1.274-5.348-.846-5.348-.846l-2.078-9.371s3.458-2.171 5.466-1.695z" class="cls-18" data-name="Path 260"/>
            <path id="Path_261" d="M5982.667 3093.377l3.746-1.982-1.957-17.7-5.029-3 2.5-1.6a19.064 19.064 0 0 1-1.668-5.083c-.117-1.863.9-2.644 4.085-2.374 1.764.424 4.574 5.5 4.065 9.006s5.42 22.842 6.647 25.868-6.844 7.632-6.844 7.632a5.352 5.352 0 0 1-6.632-2.127c-2.657-3.935 1.087-8.64 1.087-8.64z" class="cls-18" data-name="Path 261"/>
            <path id="Path_262" d="M5956.923 3101.5a36.807 36.807 0 0 1 11.122-3.729c7.73-1.979 14.622-4.389 14.622-4.389a20.366 20.366 0 0 1 5.542 10.77s-6.223 6.93-13.469 9.413c.189 3.689 6.143 18.852 10.152 21.881-1.151 3.97-18 13.285-29.828 11.521-2.787-2.9-5.36-18.037-6.807-28.166a16.834 16.834 0 0 1 8.666-17.301z" class="cls-8" data-name="Path 262"/>
            <path id="Path_263" d="M5950.081 3096.634l1.471 6.637c3.485-1.373 5.263-6.66 5.263-6.66l-1.268-1.671c-2.008-.477-5.466 1.694-5.466 1.694z" class="cls-19" data-name="Path 263"/>
            <path id="Path_264" d="M5950.626 3080.938a8.27 8.27 0 0 1 2.908 1.273c3.053 2.067 7.406 5.944 7.494 7.878.13 2.9-2.357 6.384-9.779 9.528-2.753.392-8.018-6.606-8.444-8.273-2.782-10.906 4.447-11.378 7.821-10.406z" class="cls-18" data-name="Path 264"/>
            <path id="Path_265" d="M5974.74 3113.56l-9.15 2.319s10.194 18.131 19.3 19.562c-4.007-3.029-9.961-18.192-10.15-21.881z" class="cls-12" data-name="Path 265"/>
            <path id="Path_266" d="M6006.877 3198.225a42.791 42.791 0 0 1-6.964 1.393c.026 3.14.064 5.173.064 5.173l16.866-3z" class="cls-20" data-name="Path 266"/>
            <path id="Path_267" d="M5977.609 3213.845c-1.943 2.062-6.177 3.068-6.177 3.068l-5.346 10.941 12.261-8.347z" class="cls-20" data-name="Path 267"/>
            <path id="Path_268" d="M5948.06 3092.186s2.851 4.263 7.019 3.816 6.788-5.284 6.864-6.223-1.307-5.524-4.384-5.115-3.638 4.021-3.638 4.021-.208 2.266-.694 2.64-2.76.146-4.856-2.291a.386.386 0 0 1 .009-.487c.436-.575 1.184-2.13-1.277-4.161a.46.46 0 0 1 .007-.691 34.515 34.515 0 0 1 2.631-2.388 4.57 4.57 0 0 1 .576-.354.359.359 0 0 1 .309-.015c.3.136.981.446 1.144.518.212.094 1.764.755 1.764.755a1.039 1.039 0 0 0-.27-.971 14.72 14.72 0 0 1-1.665-1.293c-.127-.273.342-1.051-.047-1.59-.881-1.219-4.768-5.506-6.344.052a8 8 0 0 1-.614 1.96c-.405.613-1.323.682-2.471 1.659-1.6 1.364-7.616 8.416-.53 13.163s6.344-1.647 6.467-3.005z" class="cls-11" data-name="Path 268"/>
        </g>
    </g>
</svg>
