<svg xmlns="http://www.w3.org/2000/svg" width="257.355" height="331.194" viewBox="0 0 257.355 331.194">
    <defs>
        <style>
            .cls-1{fill:#ccc}.cls-2{fill:#c9d1de}.cls-3{fill:#f1684d}.cls-4{fill:#cc5b44}.cls-5{fill:#1a4675}.cls-6{fill:#00678f}.cls-7{fill:#b9bcc3}.cls-8{fill:#404041}.cls-9{fill:#fff}.cls-10{fill:#6f819e}.cls-11{fill:#ffe7af}.cls-12{fill:#3a3a3a}.cls-13{fill:#cbcbca}.cls-14{fill:#333}
        </style>
    </defs>
    <g id="Group_189" data-name="Group 189" transform="translate(-4938.855 -2862.538)">
        <ellipse id="Ellipse_33" cx="55.841" cy="3.074" class="cls-1" data-name="Ellipse 33" rx="55.841" ry="3.074" transform="translate(4938.855 3187.583)"/>
        <ellipse id="Ellipse_34" cx="39.239" cy="3.074" class="cls-1" data-name="Ellipse 34" rx="39.239" ry="3.074" transform="translate(5115.32 3187.583)"/>
        <g id="Group_188" data-name="Group 188">
            <path id="Path_278" d="M5058.6 2982.283l3.747 10.617s29.425-3.03 34.994-7.578c5.1-4.165 12.253-24.584 12.253-24.584l10.3 51.522h52.146s-.909-37.514-2.5-50.2c0 0 9.883 16.4 11.554 21.158 2.77 7.9 2.185 33.411 2.185 33.411h11.241s2.706-28.678 1.249-38.1c-2.457-15.893-16.681-47.218-38.095-51.834l-9.992-2.81s-12.8-4.364-30.913 4.375c0 0-12.889 5.23-17.866 17.17-3.07 7.364-6.275 25.6-12.52 29.352z" class="cls-2" data-name="Path 278"/>
            <path id="Path_279" d="M5114.842 2890.4s3.173-8.989 17.979-8.989 12.163 22.209 12.163 22.209l-4.76 11.634 1.849 15.754-12.774.312-2.823-8.663s-8.461 3.173-11.634-11.634 0-20.623 0-20.623z" class="cls-3" data-name="Path 279"/>
            <path id="Path_280" d="M5131.714 2900.284s3.679 19.4-8.282 22.561l3.044-.19 1.233 3.979s2.548 3.152 12.515-11.382c0 0 4.55-18.835-8.51-14.968z" class="cls-4" data-name="Path 280"/>
            <path id="Path_281" d="M5144.51 3182.9s1.864 8.611-1.6 9.364h-15.442s-3.266-.864 0-4.682c1.253-1.464 6.123-4.682 6.123-4.682z" class="cls-5" data-name="Path 281"/>
            <path id="Path_282" d="M5181.044 3182.9s1.864 8.611-1.6 9.364H5164s-3.266-.864 0-4.682c1.252-1.464 6.123-4.682 6.123-4.682z" class="cls-5" data-name="Path 282"/>
            <path id="Path_283" d="M5114.842 2890.4s3.173-8.989 17.979-8.989 12.163 22.209 12.163 22.209l-4.76 11.634-3.7-1.058v-14.277l-7.45 1.027.226-11.074z" class="cls-5" data-name="Path 283"/>
            <ellipse id="Ellipse_35" cx="2.919" cy="4.575" class="cls-3" data-name="Ellipse 35" rx="2.919" ry="4.575" transform="translate(5133.856 2900.284)"/>
            <ellipse id="Ellipse_36" cx="2.919" cy="4.575" class="cls-4" data-name="Ellipse 36" rx="2.919" ry="4.575" transform="translate(5133.856 2900.284)"/>
            <path id="Path_284" d="M5132.393 2999.7l5.933-8.743-4.469-52.458H5130l-4.481 55.581z" class="cls-6" data-name="Path 284"/>
            <path id="Path_285" d="M5127.913 2933.281l2.087 5.219h3.852l2.919-5.454-4.383-3.914z" class="cls-6" data-name="Path 285"/>
            <path id="Path_286" d="M5149.218 2924.455l-8.082 12.483-8.743-7.806 8.447-8.635s3.319-.589 8.378 3.958z" class="cls-7" data-name="Path 286"/>
            <path id="Path_287" d="M5123.962 2936.938l8.431-7.806-5.33-4.677s-5.287 1.245-3.101 12.483z" class="cls-7" data-name="Path 287"/>
            <path id="Path_288" d="M5046.738 2986.6l-10.617 6.3s-6.869 5.308 0 4.372l6.246-4.372.624 2.186 2.186.624s-.526 1.536-.312 1.993c.231.5 1.873 1.13 1.873 1.13s8.885-.37 9.509-5.181l6.1-.752-3.747-10.617-7.49 1.717a8.77 8.77 0 0 0-5.6.584z" class="cls-3" data-name="Path 288"/>
            <path id="Path_289" d="M5119.9 3012.26s-.356 49.734 1.281 75.1 12.41 95.538 12.41 95.538h10.916s-5.677-126.09.5-142.184h1.814s4.91 46.646 9 75.833 12.279 66.353 12.279 66.353h12.942s-8.522-167.088-9-170.641z" class="cls-8" data-name="Path 289"/>
            <path id="Rectangle_186" d="M0 0h5.621v4.372H0z" class="cls-5" data-name="Rectangle 186" transform="translate(5119.903 3012.26)"/>
            <path id="Rectangle_187" d="M0 0h5.621v4.372H0z" class="cls-5" data-name="Rectangle 187" transform="translate(5127.913 3012.26)"/>
            <path id="Rectangle_188" d="M0 0h5.621v4.372H0z" class="cls-5" data-name="Rectangle 188" transform="translate(5135.516 3012.26)"/>
            <path id="Rectangle_189" d="M0 0h6.002v4.372H0z" class="cls-5" data-name="Rectangle 189" transform="translate(5149.018 3012.26)"/>
            <path id="Rectangle_190" d="M0 0h7.882v5.728H0z" class="cls-9" data-name="Rectangle 190" transform="translate(5141.136 3011.13)"/>
            <path id="Rectangle_191" d="M0 0h6.002v4.372H0z" class="cls-5" data-name="Rectangle 191" transform="translate(5157.571 3012.26)"/>
            <path id="Rectangle_192" d="M0 0h6.002v4.372H0z" class="cls-5" data-name="Rectangle 192" transform="translate(5165.689 3012.26)"/>
            <rect id="Rectangle_193" width="20.52" height="11.908" class="cls-5" data-name="Rectangle 193" rx="3.069" transform="rotate(-180 2597.48 1518.481)"/>
            <path id="Path_290" d="M5183.29 3016.631a19.854 19.854 0 0 0-1.873 8.424 6.474 6.474 0 0 1 5.62 1.881 16.839 16.839 0 0 1 1.874 8.743s1.561 3.747 4.059-1.561a31.148 31.148 0 0 0 0-17.487z" class="cls-3" data-name="Path 290"/>
            <path id="Path_291" d="M5071.9 2865.947c-.093-.809-1.135-.409-1.4.262a4.576 4.576 0 0 0-.143.579c.085-1.336.139-2.426.108-2.692-.088-.768-1.052-.474-1.377.131.017-.538.022-.943.005-1.115-.1-.986-1.145-.569-1.407.247a11.719 11.719 0 0 0-.228 1.367 6.53 6.53 0 0 0 0-.748c-.093-.809-1.024-.595-1.288.076a10.351 10.351 0 0 0-.269 1.573c-.118.815-.344 1.69-.447 2.509-.093.744-.962 4.245-2.7 4.617-2.663.571-.975-4.062-2.853-5.1-.589-.326-1.215 3.267-1.259 5.3a22.612 22.612 0 0 0 .135 4.245c.167 1.2.829 2.89.736 3.615a15.026 15.026 0 0 1-1.513 3.563l6.727 1.531a27.119 27.119 0 0 1 2.4-4.557 15.372 15.372 0 0 0 4.072-7.2 29.806 29.806 0 0 0 .768-5.444s-.034-2.494-.067-2.759z" class="cls-10" data-name="Path 291"/>
            <path id="Path_292" d="M5008.652 2922.178s21.333-.189 32.914-13.169c9.24-12.946 18.166-27.269 18.832-28.6 1.818.7 5.726 2.483 5.726 2.483s-12.207 27.312-16.961 33.55-14.108 16.454-33.877 21.525c-9.471-10.867-6.634-15.789-6.634-15.789z" class="cls-10" data-name="Path 292"/>
            <g id="Group_183" data-name="Group 183">
                <g id="Group_178" data-name="Group 178">
                    <path id="Path_293" d="M5022.555 3176.833a13.986 13.986 0 0 1 1.165 4.679c-.061 1.88-6.024 2.264-6.758 1.321s-1.435-9.534-1.435-9.534" class="cls-11" data-name="Path 293"/>
                    <path id="Path_294" d="M5015.453 3184.551a39.8 39.8 0 0 0 .755 5.113l6.878-.283.291-1.162a10.8 10.8 0 0 0 4.029.984l5.806-.239c4.249-.175 6.64-.815 6.717-1.567.32-3.144-4.751-2.793-6.073-2.739-3.8.157-7.978-1.451-8.953-3.341-.708-1.371-.435-1.737-1.21-1.443a1.967 1.967 0 0 0-1.136 1.066 3.489 3.489 0 0 1-3.506 2.1 4.151 4.151 0 0 1-2.371-1.025 2.509 2.509 0 0 0-1.227 2.536z" class="cls-12" data-name="Path 294"/>
                </g>
                <g id="Group_179" data-name="Group 179">
                    <path id="Path_295" d="M4955.372 3173.1a56.143 56.143 0 0 1-1.819 6.81c-.753 1.723-6.434-.128-6.766-1.276s2.2-9.388 2.2-9.388" class="cls-11" data-name="Path 295"/>
                    <path id="Path_296" d="M4944.748 3179.673c-.648 1.844-1.576 5.4-1.576 5.4l5.341 2.9.992-.814a10.174 10.174 0 0 0 2.861 2.753 22.356 22.356 0 0 0 5.249 1.926c4.808.891 8.465.214 8.815-.457 1.462-2.8-4.913-4.046-6.161-4.485a8.518 8.518 0 0 1-5.545-6.727c-.149-1.536.24-1.775-.589-1.788a1.964 1.964 0 0 0-1.451.569 3.488 3.488 0 0 1-4.036.656 4.159 4.159 0 0 1-1.822-1.831 2.511 2.511 0 0 0-2.078 1.898z" class="cls-12" data-name="Path 296"/>
                </g>
                <g id="Group_182" data-name="Group 182">
                    <path id="Path_297" d="M4974.016 3037.96s-10.266-21.995 5.366-38.913c0 0 14.166 5.653 25.336 5.946 8.794.231 13.211-.861 13.211-.861s2.645 16.206 2.613 41.788z" class="cls-5" data-name="Path 297"/>
                    <path id="Path_298" d="M5014.954 3179.308c.283.009.565 0 .827-.014a47.139 47.139 0 0 0 9.078-1l-.069-1.671c-1.377-25.606 0-67.607.06-80.864a14.774 14.774 0 0 0-.185-2.534c-1.406-9.647-11.364-7.966-15.207 1.11a35.632 35.632 0 0 0-2.094 6.945 62.636 62.636 0 0 0-1.153 9.732c-1.043 22.196 6.351 51.851 8.743 68.296z" class="cls-5" data-name="Path 298"/>
                    <path id="Path_299" d="M4992.139 3047.557c.051.26.123.54.195.819 2.695 11.571 11.184 42.795 15.029 52.885v.02c.562 1.41 2.324 2.548 4.543 3.041 5.092 1.163 12.527-1.02 12.758-11.1a24.435 24.435 0 0 0-.19-3.624c-1-8.13-4.649-53.131-5.19-57.467-.522-4.336-1.568-10.648-3.9-11.359-11.62-3.492-26.918 10.595-23.245 26.785z" class="cls-5" data-name="Path 299"/>
                    <path id="Path_300" d="M4971.233 3095.255c7.459-7.618 18.393-4.608 13.819 6.927-4.893 12.332-20.177 46.641-28.226 70.98l-.559 1.585a49.069 49.069 0 0 1-9.585-2.675c3.659-15.734 5.683-42.674 13.851-61.725 2.626-6.125 6.835-11.147 10.7-15.092z" class="cls-5" data-name="Path 300"/>
                    <g id="Group_181" data-name="Group 181">
                        <g id="Group_180" data-name="Group 180">
                            <path id="Path_301" d="M5011.987 3021.749c.764-18.08-21.2-5.189-31.726 1.2-4.431 2.69-5.884 7.769-6.3 12.51s-4.237 53.535-5.041 62.442c-1.813 20.079 15.181 8.44 16.6 2.838 3.588-14.139 26.05-69.139 26.467-78.99z" class="cls-5" data-name="Path 301"/>
                        </g>
                    </g>
                    <path id="Path_302" d="M4969.957 3085.463s-.318 9.586-7.86 21.7c0 0 12.886-6.606 13.487-7.524s2.515-10.269 2.219-11.24-7.846-2.936-7.846-2.936z" class="cls-5" data-name="Path 302"/>
                </g>
            </g>
            <g id="Group_185" data-name="Group 185">
                <g id="Group_184" data-name="Group 184">
                    <path id="Path_303" d="M5009 2907.739c.047 1.362.1 6.684-2.728 7.955-2.828 1.29-4.642 1.832-4.56 2.268.032.2.311 1.135.611 2.053a4.255 4.255 0 0 0 1.636 2.565l.409 6.814-5.081 5.066-1.66 1.651-2.493-2.283-8.13-7.4s3.35-4.128 1.037-8.551c-.331-.624-4.036-4.726-6.991-8.859-1.719-2.431-3.183-4.851-3.57-6.58-1.06-4.731-1.953-9.71.762-12.68 2.7-2.971 21.31-15.184 25.037-.854 0 0 4.27 7.868 5.661 9.1a2.163 2.163 0 0 1-.2 3.657c-1.233.701.209 4.717.26 6.078z" class="cls-10" data-name="Path 303"/>
                    <path id="Path_304" d="M5004.363 2929.394l-5.081 5.066-1.546.749-2.607-1.381-8.13-7.4s3.35-4.128 1.037-8.551c-.331-.624-4.036-4.726-6.991-8.859l-.344-2.851s5.775-1.591 6.012-1.6a20.2 20.2 0 0 1 2.858 3.085c.032.178-.431 3.53-.431 3.53s.758 4.384 1.675 7.71a4.657 4.657 0 0 0 4.173 3.194 15.3 15.3 0 0 0 3.531-.1 6.655 6.655 0 0 0 3.8-1.963 4.255 4.255 0 0 0 1.636 2.565z" class="cls-13" data-name="Path 304"/>
                    <path id="Path_305" d="M4986.975 2903.6s-.443 9.7 6.413 13.7 16.279-.433 17.448-1.777 4.21-9.888-.938-12.72-10.061 2.045-10.061 2.045-2.86 3.22-4.022 3.243c-1.125.023-4.369-2.875-4.829-8.943a.733.733 0 0 1 .563-.733c1.309-.387 4.2-1.917 2.725-7.775a.871.871 0 0 1 .786-1.045 65.119 65.119 0 0 1 6.691-.686 8.732 8.732 0 0 1 1.275.106.68.68 0 0 1 .487.325c.3.543.995 1.781 1.164 2.075.217.38 1.84 3.131 1.84 3.131s-.518-5.064-.406-5.623-2.769-9.408-11.15-7.223c-1.348.351-2.784-.446-5.63-.246-3.975.28-21.058 4.276-15.589 19.468s14.47 17.359 14.47 17.359-2.951-12.744-1.237-14.681z" class="cls-14" data-name="Path 305"/>
                </g>
                <path id="Path_306" d="M4986.975 2903.6s-.846-2.611-3.03-1.859c-2.932 1.011-2.668 8.374 3.718 7.4a19.486 19.486 0 0 1-.688-5.541z" class="cls-10" data-name="Path 306"/>
            </g>
            <path id="Path_307" d="M5023.382 3008.4s-23.113 5.675-52.148.287c1.408-8.971 2.09-23.191 2.463-33.423l.04-1.043c.231-6.533.35-11.2.5-11.389.292-.4-.742-21.25.97-29.421a5.665 5.665 0 0 1 1.258-3.006 62.077 62.077 0 0 1 11.854-8s10.389 11.176 15.691-1.192c5.833-.525 8.8.653 10.49 6.491 9.333 32.438 8.882 80.696 8.882 80.696z" class="cls-9" data-name="Path 307"/>
            <path id="Path_308" d="M5008.357 2921.293a51.563 51.563 0 0 0 19.517-4.2c5.5 6.467 8.824 18.253 8.824 18.253s-13.3 8.45-23.015 9.263a136.065 136.065 0 0 0-5.326-23.316z" class="cls-9" data-name="Path 308"/>
            <g id="Group_186" data-name="Group 186">
                <path id="Path_309" d="M4990.553 2967.374l7.087 7.8s6.153 7.8 13.572 8.865l23.354 4.044-.01 11.208-23.546.883s-13.7.531-21.544-8.487l-14.981-16.734z" class="cls-10" data-name="Path 309"/>
                <path id="Path_310" d="M5038.7 2988.373s4.015-3.56 6.809-3.788l1.236 2.015a7.975 7.975 0 0 0-1.24 1.323s-.59 1.208 1.755.521c1.214-.356 3.407.084 7.057.905.67.151 4.29 4.351-.532 8.248 0 0-7.472 3.072-19.226 1.7l.01-11.208z" class="cls-10" data-name="Path 310"/>
            </g>
            <g id="Group_187" data-name="Group 187">
                <path id="Path_311" d="M4979.123 2928.275s-11.982 7.849-12.5 21.212c-.4 10.332 6.436 25.408 6.436 25.408s11.855 1.308 18.077-8.382a73.966 73.966 0 0 0-7-14.443" class="cls-9" data-name="Path 311"/>
            </g>
            <path id="Path_312" d="M5045.506 2984.585s-3.182 4.815-.551 6.383l1.737 1.148s2.74.4 1.018-2.464l-.748-1.3 2.158-3.083z" class="cls-3" data-name="Path 312"/>
            <ellipse id="Ellipse_37" cx="5.128" cy="1.889" class="cls-3" data-name="Ellipse 37" rx="5.128" ry="1.889" transform="rotate(-7.426 25611.752 -37359.908)"/>
        </g>
    </g>
</svg>
