<svg xmlns="http://www.w3.org/2000/svg" width="91.617" height="106.708" viewBox="0 0 91.617 106.708">
    <defs>
        <style>
            .cls-1{fill:#ffcc07}.cls-2{fill:#4d4e4e}.cls-3{fill:#fff}
        </style>
    </defs>
    <g id="Light" transform="translate(-466.191 -2032.467)">
        <g id="Group_344" data-name="Group 344">
            <g id="Group_343" data-name="Group 343">
                <path id="Path_479" d="M503.505 2120.452c-1.894-1 1.031-9.8-.882-10.906-2.706-1.569-16.906-11.541-15.709-27.445s10.746-27.24 26.83-27.139c16.1.1 27.291 9.928 27.826 26.753.528 16.6-12.531 25.892-12.823 28.634s1.36 9.014.4 9.784c-2.169 1.754-22.365 2.044-25.642.319z" class="cls-1" data-name="Path 479"/>
                <g id="Group_341" data-name="Group 341">
                    <path id="Path_480" d="M521.752 2130.4c-3.988-.025-9.772-.167-18.251-.461a3.179 3.179 0 1 1 .221-6.355c10.988.466 23.936.915 24.537.323a3.18 3.18 0 0 1 3.066 5.442c-.768.651-1.305 1.105-9.573 1.051z" class="cls-2" data-name="Path 480"/>
                </g>
                <g id="Group_342" data-name="Group 342">
                    <path id="Path_481" d="M520.193 2139.172c-2.863-.018-7.015-.15-13.1-.429-1.259-.058-2.242-1.528-2.2-3.282s1.1-3.127 2.365-3.073c7.545.346 16.034.539 17.614.28a1.9 1.9 0 0 1 2.467.954 4.1 4.1 0 0 1-.275 4.481c-.55.652-.936 1.106-6.871 1.069z" class="cls-2" data-name="Path 481"/>
                </g>
            </g>
            <path id="Path_482" d="M527.664 2085.006c-1.539-1-3.384-.024-4.4 1.219a22.267 22.267 0 0 0-2.876 5.074q-.277.628-.529 1.265a5.519 5.519 0 0 1-2.751-.705 5.373 5.373 0 0 1-.713-.482 9.061 9.061 0 0 0 2.938-6.265 3.382 3.382 0 0 0-2.111-3.337c-1.768-.641-3.514.893-4.243 2.361a6.992 6.992 0 0 0 .945 7.168 8.421 8.421 0 0 1-4.092 1.6 43.978 43.978 0 0 0-1.215-4.165 10.245 10.245 0 0 0-2.644-4.356c-1.3-1.171-3.323-1.833-4.289.077-1.544 3.052.4 6.659 2.837 8.541a7.445 7.445 0 0 0 4.254 1.535q.306 1.393.55 2.791a62.533 62.533 0 0 1 .36 17.153.462.462 0 0 0 .9.128 49.253 49.253 0 0 0 .566-13.2 57.275 57.275 0 0 0-.969-6.917 10.046 10.046 0 0 0 3.877-1.31 11.21 11.21 0 0 0 .979-.643 7 7 0 0 0 4.183 1.755 46.713 46.713 0 0 0-1.963 8.555 89.556 89.556 0 0 0-.742 11.632.944.944 0 0 0 1.886.011c.043-6.8.465-13.84 2.788-20.284a9.56 9.56 0 0 0 2.984-1.017c2.205-1.181 6.926-5.959 3.49-8.184zm-20.63 7.57a6.9 6.9 0 0 1-3.586-3.137c-.674-1.188-1.177-3.347-.237-4.546.586-.746 2.19 1 2.538 1.421a10.079 10.079 0 0 1 1.548 3 37.88 37.88 0 0 1 1.088 3.573 6.485 6.485 0 0 1-1.351-.311zm7.842-8.24c.389-.578 1.239-1.2 1.962-.872a1.683 1.683 0 0 1 .78 1.466 6.524 6.524 0 0 1-1.59 4.293 9.309 9.309 0 0 1-.783.932 5.138 5.138 0 0 1-.369-5.819zm12.143 2.875a5.466 5.466 0 0 1-1.279 2.382 8.376 8.376 0 0 1-3.752 2.608c.185-.425.377-.847.581-1.266.419-.862.888-1.7 1.388-2.518a4.153 4.153 0 0 1 1.788-1.914c.546-.203 1.377-.011 1.274.708z" class="cls-3" data-name="Path 482"/>
        </g>
        <path id="Path_483" d="M517.995 2034.258c-.109-1.912-3.185-2.611-3.534-.5a49.086 49.086 0 0 0-.246 7.39c-.027 2.358-.451 5.105.609 7.282a.729.729 0 0 0 1.247.007c1.206-1.914 1.1-4.544 1.306-6.737a49.987 49.987 0 0 0 .618-7.442z" class="cls-1" data-name="Path 483"/>
        <path id="Path_484" d="M542.083 2039.428a14.17 14.17 0 0 0-2.861 2.894c-1.028 1.155-2.077 2.29-3.1 3.453a71.209 71.209 0 0 0-5.4 6.666c-.8 1.174.924 2.409 1.9 1.486 1.989-1.881 3.817-3.933 5.745-5.875a173.4 173.4 0 0 1 2.936-2.882 20.14 20.14 0 0 0 3.276-3.207 1.853 1.853 0 0 0-2.496-2.535z" class="cls-1" data-name="Path 484"/>
        <path id="Path_485" d="M497.378 2052.073c-3.462-3.692-7.132-7.269-10.768-10.789-1.584-1.534-4.056.948-2.419 2.389 3.814 3.356 7.687 6.74 11.657 9.91 1.058.844 2.503-.473 1.53-1.51z" class="cls-1" data-name="Path 485"/>
        <path id="Path_486" d="M480.928 2065.87a43.993 43.993 0 0 1-6.481-.962 29.612 29.612 0 0 1-3.26-1.051 20.766 20.766 0 0 0-3.147-1.368c-1.236-.243-2.578 1.364-1.384 2.344 1.718 1.41 4.526 1.8 6.655 2.3 2.991.7 5.893 1.057 7.606.445 1.025-.368 1.125-1.599.011-1.708z" class="cls-1" data-name="Path 486"/>
        <path id="Path_487" d="M556.639 2064.809c-1.464-.6-3.531.14-5.062.36a41.765 41.765 0 0 0-5.616 1.073.969.969 0 0 0 .244 1.9 38.82 38.82 0 0 0 5.252.182c1.724-.028 4.046.392 5.553-.53a1.648 1.648 0 0 0-.371-2.985z" class="cls-1" data-name="Path 487"/>
    </g>
</svg>
