<svg xmlns="http://www.w3.org/2000/svg" width="100" height="100" viewBox="0 0 100 100">
    <defs>
        <style>
            .cls-1{fill:#0f6987}
        </style>
    </defs>
    <g id="Vision_icon" data-name="Vision icon">
        <path id="Path_399" d="M2630.56 3435.565l.938-1.53-.938-1.531a56.323 56.323 0 0 0-11.257-12.445 50.77 50.77 0 0 0-66.493-.006 56.885 56.885 0 0 0-11.344 12.438l-.957 1.544.957 1.544a56.922 56.922 0 0 0 11.344 12.438 50.77 50.77 0 0 0 66.493-.006 56.289 56.289 0 0 0 11.257-12.446zm-15.162 8.072c-8.768 7.244-18.626 10.917-29.3 10.917s-20.57-3.675-29.4-10.924a55.273 55.273 0 0 1-9.177-9.595 55.321 55.321 0 0 1 9.177-9.6c8.827-7.248 18.717-10.924 29.4-10.924s20.533 3.673 29.3 10.918a54.525 54.525 0 0 1 9.109 9.6 54.6 54.6 0 0 1-9.107 9.608z" class="cls-1" data-name="Path 399" transform="translate(-2536.009 -3384.035)"/>
        <path id="Path_400" d="M2586.009 3416.431a17.6 17.6 0 1 0 17.6 17.6 17.624 17.624 0 0 0-17.6-17.6zm0 29.349a11.745 11.745 0 1 1 11.745-11.745 11.759 11.759 0 0 1-11.745 11.745z" class="cls-1" data-name="Path 400" transform="translate(-2536.009 -3384.035)"/>
        <path id="Path_401" d="M2541.868 3389.894h12.232v-5.859h-18.091v17.871h5.859z" class="cls-1" data-name="Path 401" transform="translate(-2536.009 -3384.035)"/>
        <path id="Path_402" d="M2617.918 3384.035v5.859h12.232v12.012h5.859v-17.871z" class="cls-1" data-name="Path 402" transform="translate(-2536.009 -3384.035)"/>
        <path id="Path_403" d="M2541.868 3466.164h-5.859v17.871h18.091v-5.859h-12.232z" class="cls-1" data-name="Path 403" transform="translate(-2536.009 -3384.035)"/>
        <path id="Path_404" d="M2630.15 3478.176h-12.232v5.859h18.091v-17.871h-5.859z" class="cls-1" data-name="Path 404" transform="translate(-2536.009 -3384.035)"/>
    </g>
</svg>
