<svg xmlns="http://www.w3.org/2000/svg" width="99.792" height="100" viewBox="0 0 99.792 100">
    <defs>
        <style>
            .cls-1{fill:#0f6987}
        </style>
    </defs>
    <g id="Vision_icon" data-name="Vision icon">
        <path id="Path_391" d="M2369.947 3402.6l.472 1.924-6.4 6.4a29.6 29.6 0 0 1 4.817 4.767l6.514-6.514 1.66.4a39.818 39.818 0 0 0-7.063-6.977z" class="cls-1" data-name="Path 391" transform="translate(-2296.113 -3384.035)"/>
        <path id="Path_392" d="M2387.418 3406.064l7.237-7.237-11.042-2.709-2.708-11.25-7.4 7.4a50.026 50.026 0 0 1 13.913 13.796z" class="cls-1" data-name="Path 392" transform="translate(-2296.113 -3384.035)"/>
        <path id="Path_393" d="M2353.785 3430.738l7.611-7.611a19.056 19.056 0 0 0-4.822-4.761l-7.677 7.677a8.557 8.557 0 0 1 4.888 4.695z" class="cls-1" data-name="Path 393" transform="translate(-2296.113 -3384.035)"/>
        <path id="Path_394" d="M2383.193 3413.117l-1.09-.263-3.27-.787a39.627 39.627 0 1 1-11.376-11.227l-.786-3.2-.269-1.094.8-.8 4.581-4.582a49.95 49.95 0 0 0-75.667 42.871 49.962 49.962 0 0 0 95 21.667 51.906 51.906 0 0 0 4.792-18.959v-2.708a49.974 49.974 0 0 0-7.385-26.245l-4.534 4.534z" class="cls-1" data-name="Path 394" transform="translate(-2296.113 -3384.035)"/>
        <path id="Path_395" d="M2361.4 3423.127l7.441-7.441a29.6 29.6 0 0 0-4.817-4.767l-7.446 7.447a19.056 19.056 0 0 1 4.822 4.761z" class="cls-1" data-name="Path 395" transform="translate(-2296.113 -3384.035)"/>
        <path id="Path_396" d="M2364.863 3434.035a18.967 18.967 0 1 1-10.053-16.734l7.581-7.581a29.42 29.42 0 1 0 7.655 7.586l-7.555 7.554a18.859 18.859 0 0 1 2.372 9.175z" class="cls-1" data-name="Path 396" transform="translate(-2296.113 -3384.035)"/>
        <path id="Path_397" d="M2383.613 3396.118l-2.708-11.25-7.4 7.4-4.9 4.9 1.806 7.361-26.6 26.6a3.531 3.531 0 0 0 0 4.792 3.531 3.531 0 0 0 4.791 0l5.172-5.172 21.566-21.566 1.66.4 5.561 1.339 4.846-4.846 7.237-7.237z" class="cls-1" data-name="Path 397" transform="translate(-2296.113 -3384.035)"/>
        <path id="Path_398" d="M2346.217 3438.847a5.4 5.4 0 0 1-3.81-1.523 5.53 5.53 0 0 1 0-7.62l4.177-4.177c-.225-.017-.45-.034-.679-.034a8.6 8.6 0 1 0 8.469 7.484l-4.347 4.347a5.4 5.4 0 0 1-3.81 1.523z" class="cls-1" data-name="Path 398" transform="translate(-2296.113 -3384.035)"/>
    </g>
</svg>
